<?xml version="1.0" standalone="no"?><!DOCTYPE svg PUBLIC "-//W3C//DTD SVG 1.1//EN" "http://www.w3.org/Graphics/SVG/1.1/DTD/svg11.dtd"><svg t="1644206990895" class="icon" viewBox="0 0 1024 1024" version="1.1" xmlns="http://www.w3.org/2000/svg" p-id="3286" xmlns:xlink="http://www.w3.org/1999/xlink" width="400" height="400"><defs><style type="text/css"></style></defs><path d="M877.714286 73.142857a73.142857 73.142857 0 0 1 73.142857 73.142857v731.428572a73.142857 73.142857 0 0 1-73.142857 73.142857H146.285714a73.142857 73.142857 0 0 1-73.142857-73.142857V146.285714a73.142857 73.142857 0 0 1 73.142857-73.142857h731.428572z m0 73.142857H146.285714v731.428572h731.428572V146.285714z" fill="#4C5D7C" p-id="3287"></path><path d="M398.116571 312.905143l2.633143 6.509714 110.153143 364.982857a36.571429 36.571429 0 0 1-67.510857 27.282286l-2.486857-6.070857L426.569143 658.285714H305.737143l-14.116572 47.177143a36.571429 36.571429 0 0 1-39.058285 25.892572l-6.436572-1.316572a36.571429 36.571429 0 0 1-25.892571-38.985143l1.316571-6.509714 108.982857-365.056c9.728-32.475429 53.248-34.669714 67.510858-6.582857zM731.428571 292.571429c14.701714 0 29.257143 1.462857 43.52 4.315428a36.571429 36.571429 0 0 1-14.482285 71.68 146.285714 146.285714 0 1 0 0.292571 286.72 36.571429 36.571429 0 0 1 14.555429 71.68A219.428571 219.428571 0 1 1 731.428571 292.571429zM365.860571 457.142857L327.606857 585.142857h76.8l-38.546286-128z" fill="#1476BB" p-id="3288"></path></svg>