<?xml version="1.0" standalone="no"?><!DOCTYPE svg PUBLIC "-//W3C//DTD SVG 1.1//EN" "http://www.w3.org/Graphics/SVG/1.1/DTD/svg11.dtd"><svg t="1644292139279" class="icon" viewBox="0 0 1024 1024" version="1.1" xmlns="http://www.w3.org/2000/svg" p-id="4284" xmlns:xlink="http://www.w3.org/1999/xlink" width="400" height="400"><defs><style type="text/css"></style></defs><path d="M930.4 697.6H92.8V139.2h838.4v558.4zM46.4 46.4C20.8 46.4 0 68 0 92.8v698.4c0 25.6 20.8 46.4 46.4 46.4h279.2v46.4H185.6v93.6h652v-93.6H698.4v-46.4h279.2c25.6 0 46.4-20.8 46.4-46.4V92.8c0-25.6-20.8-46.4-46.4-46.4H46.4z" fill="#FE9700" p-id="4285"></path><path d="M185.6 558.4V279.2h93.6v279.2H185.6z m186.4 0V279.2h93.6v279.2H372z m372.8 0V279.2h93.6v279.2H744.8z m-187.2 0V279.2h93.6v279.2H557.6z" fill="#FFCB00" p-id="4286"></path></svg>