<?xml version="1.0" standalone="no"?><!DOCTYPE svg PUBLIC "-//W3C//DTD SVG 1.1//EN" "http://www.w3.org/Graphics/SVG/1.1/DTD/svg11.dtd"><svg t="1643781756599" class="icon" viewBox="0 0 1024 1024" version="1.1" xmlns="http://www.w3.org/2000/svg" p-id="1248" xmlns:xlink="http://www.w3.org/1999/xlink" width="200" height="200"><defs><style type="text/css"></style></defs><path d="M512 512m-512 0a512 512 0 1 0 1024 0 512 512 0 1 0-1024 0Z" fill="#0072C5" p-id="1249"></path><path d="M227.346286 811.081143h69.485714a175.36 175.36 0 0 0 48-4.132572 28.946286 28.946286 0 0 0 17.078857-15.451428 85.211429 85.211429 0 0 0 5.357714-34.742857v-21.449143a60.342857 60.342857 0 0 0-7.424-33.517714 44.507429 44.507429 0 0 0-28.288-15.652572 44.379429 44.379429 0 0 0 25.069715-12.269714 46.793143 46.793143 0 0 0 6.363428-28.269714 80.457143 80.457143 0 0 0-9.014857-43.465143 42.678857 42.678857 0 0 0-23.625143-17.92 157.933714 157.933714 0 0 0-43.081143-4.425143h-59.995428v231.277714z m72.630857-190.427429a9.581714 9.581714 0 0 1 5.229714 5.485715 40.667429 40.667429 0 0 1 1.993143 15.213714 71.04 71.04 0 0 1-2.432 24.923428 11.904 11.904 0 0 1-11.282286 4.370286c-1.426286 0-3.437714 0-5.997714 0.128v-51.419428a46.72 46.72 0 0 1 12.489143 1.298285z m4.077714 89.709715a30.445714 30.445714 0 0 1 3.145143 18.011428v21.558857a28.105143 28.105143 0 0 1-3.492571 17.572572 25.6 25.6 0 0 1-16.219429 4.004571v-64.713143a28.361143 28.361143 0 0 1 16.566857 3.565715z m143.561143-35.273143a77.293714 77.293714 0 0 1 1.426286-19.657143 6.857143 6.857143 0 0 1 7.314285-3.785143 7.588571 7.588571 0 0 1 7.314286 4.516571 52.827429 52.827429 0 0 1 2.212572 19.346286 39.917714 39.917714 0 0 1-1.993143 15.725714 95.36 95.36 0 0 1-30.427429 14.994286 94.464 94.464 0 0 0-33.28 17.993143 45.604571 45.604571 0 0 0-6.729143 29.001143v15.579428a42.733714 42.733714 0 0 0 12.653715 37.211429 48.713143 48.713143 0 0 0 27.776 8.502857 35.2 35.2 0 0 0 33.572571-20.333714v16.896h56.155429v-95.085714a399.213714 399.213714 0 0 0-2.998858-62.061715 40.393143 40.393143 0 0 0-17.865142-25.435428 95.085714 95.085714 0 0 0-83.858286-1.206857 47.049143 47.049143 0 0 0-20.352 21.065142 89.6 89.6 0 0 0-5.083429 33.92v12.8h54.144v-19.858285z m18.285714 84.845714a54.857143 54.857143 0 0 1-1.627428 17.645714 7.076571 7.076571 0 0 1-7.076572 3.364572 7.515429 7.515429 0 0 1-7.643428-4.297143 57.435429 57.435429 0 0 1-1.938286-18.998857 68.041143 68.041143 0 0 1 2.212571-19.712 42.770286 42.770286 0 0 1 16.073143-16.987429v38.985143zM666.038857 671.085714a105.106286 105.106286 0 0 0-1.499428-20.992 33.865143 33.865143 0 0 0-8.557715-14.628571 49.371429 49.371429 0 0 0-20.297143-12.653714 94.848 94.848 0 0 0-32.073142-4.772572 87.771429 87.771429 0 0 0-33.353143 5.851429 38.966857 38.966857 0 0 0-20.352 16.64 71.515429 71.515429 0 0 0-5.997715 33.499428 63.579429 63.579429 0 0 0 5.485715 27.648 74.496 74.496 0 0 0 31.085714 25.929143 265.764571 265.764571 0 0 1 33.572571 20.278857 28.891429 28.891429 0 0 1 3.126858 17.005715 23.076571 23.076571 0 0 1-2.413715 12.928 10.368 10.368 0 0 1-8.576 3.072 7.478857 7.478857 0 0 1-7.643428-4.571429 63.268571 63.268571 0 0 1-1.938286-19.858286v-11.995428h-51.2v9.142857a82.285714 82.285714 0 0 0 5.851429 35.419428 41.051429 41.051429 0 0 0 21.504 18.578286 93.348571 93.348571 0 0 0 37.632 6.857143 82.011429 82.011429 0 0 0 33.938285-6.363429 39.789714 39.789714 0 0 0 20.114286-18.139428 79.451429 79.451429 0 0 0 6.016-34.925714 53.540571 53.540571 0 0 0-7.862857-31.579429 90.806857 90.806857 0 0 0-33.005714-23.131429 159.085714 159.085714 0 0 1-24.923429-14.153142 20.315429 20.315429 0 0 1-7.314286-8.923429 49.097143 49.097143 0 0 1-1.206857-12.8 15.853714 15.853714 0 0 1 2.432-9.654857 8.539429 8.539429 0 0 1 7.314286-3.218286 7.314286 7.314286 0 0 1 7.497143 3.510857 54.601143 54.601143 0 0 1 1.499428 16.64v10.331429h51.2v-10.971429z m164.992 23.424a114.523429 114.523429 0 0 0-6.345143-42.788571 50.816 50.816 0 0 0-22.144-24.429714 78.628571 78.628571 0 0 0-40.082285-9.142858 77.622857 77.622857 0 0 0-35.126858 7.625143 46.116571 46.116571 0 0 0-21.942857 21.942857 94.317714 94.317714 0 0 0-6.710857 39.204572v55.296a131.218286 131.218286 0 0 0 2.998857 32.201143 52.534857 52.534857 0 0 0 10.788572 20.297143 51.712 51.712 0 0 0 21.796571 14.500571 91.245714 91.245714 0 0 0 32.274286 5.284571 80.018286 80.018286 0 0 0 31.36-5.357714 50.614857 50.614857 0 0 0 20.644571-16.073143 54.729143 54.729143 0 0 0 10.349715-20.114285 124.964571 124.964571 0 0 0 2.212571-26.989715v-14.006857h-54.710857V757.028571a53.741714 53.741714 0 0 1-2.212572 19.072 8.667429 8.667429 0 0 1-8.777142 4.937143 7.314286 7.314286 0 0 1-7.149715-3.657143 45.586286 45.586286 0 0 1-1.828571-16.585142v-40.996572h74.697143v-25.142857z m-74.697143-5.705143v-13.860571a75.885714 75.885714 0 0 1 1.426286-19.638857 7.003429 7.003429 0 0 1 7.424-3.657143 6.217143 6.217143 0 0 1 6.418286 4.297143 69.284571 69.284571 0 0 1 1.572571 18.998857v13.860571h-16.841143z" fill="#FFFFFF" p-id="1250"></path><path d="M765.494857 456.009143h-26.477714V502.857143h-63.597714v-46.793143h-136.265143v-52.644571l103.990857-204.342858h71.972571l-101.229714 201.819429h61.531429v-76.8h63.597714v76.8h26.477714v55.168z m-321.060571 38.857143a137.307429 137.307429 0 0 1-106.788572 0.109714 75.702857 75.702857 0 0 1-33.773714-31.341714 99.547429 99.547429 0 0 1-11.611429-49.627429v-0.201143a146.066286 146.066286 0 0 1 4.534858-34.889143 216.265143 216.265143 0 0 1 12.8-36.992c0.914286-2.084571 1.828571-4.169143 2.889142-6.253714s2.048-4.114286 3.145143-6.070857l68.48-130.779429h71.954286L389.485714 323.291429a68.973714 68.973714 0 0 1 12.452572-1.206858 98.742857 98.742857 0 0 1 47.542857 10.660572 70.710857 70.710857 0 0 1 30.061714 31.085714 107.209143 107.209143 0 0 1 10.331429 49.005714v0.201143a101.723429 101.723429 0 0 1-11.611429 50.139429 75.684571 75.684571 0 0 1-33.828571 31.689143z m-18.285715-78.628572a41.728 41.728 0 0 0-9.142857-28.946285 33.426286 33.426286 0 0 0-26.112-10.130286 32.914286 32.914286 0 0 0-25.892571 10.349714 42.057143 42.057143 0 0 0-9.142857 28.928v0.219429a33.097143 33.097143 0 0 0 9.142857 25.069714 42.697143 42.697143 0 0 0 52.004571-0.109714 33.462857 33.462857 0 0 0 9.142857-25.179429v-0.201143z" fill="#FFFFFF" p-id="1251"></path></svg>