<?xml version="1.0" standalone="no"?><!DOCTYPE svg PUBLIC "-//W3C//DTD SVG 1.1//EN" "http://www.w3.org/Graphics/SVG/1.1/DTD/svg11.dtd"><svg t="1644219958978" class="icon" viewBox="0 0 1024 1024" version="1.1" xmlns="http://www.w3.org/2000/svg" p-id="6746" xmlns:xlink="http://www.w3.org/1999/xlink" width="400" height="400"><defs><style type="text/css"></style></defs><path d="M0.6144 512C0.6144 229.5552 229.5552 0.6144 512 0.6144S1023.3856 229.5552 1023.3856 512A511.3856 511.3856 0 1 1 0.6144 512z m153.8048-102.9376V665.6h136.8576c5.8368 0 17.664-1.1776 35.5328-3.5072 13.4144-1.7408 23.4496-4.5312 30.08-8.3968 10.752-6.1696 19.2-14.592 25.3952-25.1904 6.1696-10.624 9.2672-22.5792 9.2672-35.8912 0-16.3328-4.352-29.8752-13.056-40.6784-8.6784-10.7776-22.2464-18.4064-40.6784-22.8352 12.1344-4.1984 21.3504-9.9072 27.648-17.152 9.472-10.8544 14.1824-23.8592 14.1824-39.0144 0-18.0992-6.6304-33.28-19.8656-45.5168s-32.2304-18.3552-56.96-18.3552H154.4192z m277.7344 0V665.6h64.9216v-195.6608L547.1232 665.6h58.624l50.2272-195.6608V665.6h64.768V409.0624h-103.9616l-40.0896 156.0832-40.2432-156.0832h-104.2944z m342.2976 0V665.6h79.4368V409.0624h-79.4368z" fill="#3495C3" p-id="6747"></path><path d="M234.3936 509.696h34.4832c12.3648 0 20.992-2.1504 25.8048-6.4 4.864-4.2752 7.2704-10.4192 7.2704-18.4832 0-7.4496-2.432-13.312-7.2704-17.4848-4.8384-4.1984-13.2608-6.2976-25.2928-6.2976H234.3936v48.64zM234.3936 610.4832h40.448c13.6448 0 23.2704-2.432 28.8512-7.2704 5.6064-4.864 8.3968-11.3408 8.3968-19.5072a22.6048 22.6048 0 0 0-8.2944-18.304c-5.5552-4.608-15.2576-6.912-29.1328-6.912H234.3936v51.968z" fill="#3495C3" p-id="6748"></path></svg>