<?xml version="1.0" standalone="no"?><!DOCTYPE svg PUBLIC "-//W3C//DTD SVG 1.1//EN" "http://www.w3.org/Graphics/SVG/1.1/DTD/svg11.dtd"><svg t="1645424272027" class="icon" viewBox="0 0 1109 1024" version="1.1" xmlns="http://www.w3.org/2000/svg" p-id="2711" xmlns:xlink="http://www.w3.org/1999/xlink" width="433.203125" height="400"><defs><style type="text/css"></style></defs><path d="M0 335.005453m206.683799 0l316.65298 0q206.683799 0 206.683798 206.683798l0 275.62695q0 206.683799-206.683798 206.683799l-316.65298 0q-206.683799 0-206.683799-206.683799l0-275.62695q0-206.683799 206.683799-206.683798Z" fill="#D07554" p-id="2712"></path><path d="M111.668484 100.938599c-46.221042 0-83.897018 45.784079-83.02309 102.443697v122.544023H58.261818V203.916362c0-36.413636 24.275757-66.369921 54.18349-66.36992h97.10303l0.291309 59.524157c0 23.790242 13.837182 33.160685 30.587455 21.265563L350.056422 139.537054c16.798824-12.283533 16.507515-31.364279-0.291309-43.307952L239.358968 19.420606C222.317387 7.865345 208.771514 17.6242 208.771514 41.414442l0.291309 59.524157zM1007.152624 928.547722c46.221042 0 83.897018-45.784079 83.023091-102.443697v-122.544023h-29.422218v122.204163c0 36.413636-24.275757 66.369921-54.183491 66.369921h-97.10303l-0.291309-59.524158c0-23.790242-13.837182-33.160685-30.587454-21.265563l-109.483666 78.653454c-16.798824 12.283533-16.507515 31.364279 0.291309 43.307951L879.510692 1009.871509c17.090133 11.555261 30.587454 1.796406 30.587454-21.993836l-0.291309-59.524157z" fill="#E2E0E2" p-id="2713"></path><path d="M334.762695 780.319947v36.559291c0 10.535679-2.184818 15.148073-10.292921 17.866957s-21.119909 2.718885-40.346309 2.718885a76.031672 76.031672 0 0 0-7.03997-16.944479c15.439382 0.291309 28.693945 0.291309 32.480964 0s5.146461-1.068133 5.14646-4.321085V781.679389c-76.9056 4.855151-87.392727 6.214594-94.189938 8.933479a148.519084 148.519084 0 0 0-5.146461-17.332891 149.975629 149.975629 0 0 0 34.908539-8.642169c8.108103-2.718885 25.440994-8.64217 46.026836-16.798825-44.667394 2.427576-51.707363 3.544261-56.028448 4.855152-0.825376-3.544261-3.252951-11.652364-4.855151-15.973448a67.438054 67.438054 0 0 0 16.264757-4.078328 224.599308 224.599308 0 0 0 42.773885-21.411218H213.626665c1.6022-9.710303 3.544261-22.479351 5.146461-35.733915H199.061211v-13.011806h21.362666c1.359442-10.826988 2.427576-21.945285 3.252952-31.655587a149.732872 149.732872 0 0 1-13.254564 13.011806 98.025509 98.025509 0 0 0-14.565454-9.710303 111.668484 111.668484 0 0 0 35.733915-44.133327l16.264757 3.787018a89.189133 89.189133 0 0 1-4.321084 8.933479H325.29515V616.604239H234.60092a86.810109 86.810109 0 0 1-8.64217 11.652363h89.043478c-0.825376 10.535679-1.893509 22.479351-2.961642 34.374473h18.935091v13.011806H310.729695c-0.825376 8.399412-1.6022 16.798824-2.718885 23.547485h14.565455v12.18643h-21.945285l10.098715 8.302309a313.739889 313.739889 0 0 1-31.946897 15.439382l51.124746-1.990613c10.292921-5.146461 20.8286-10.292921 30.587454-15.973448l11.895121 13.254564a598.785833 598.785833 0 0 1-90.791333 38.258593l101.229909-5.971836c-7.03997-4.855151-14.079939-9.710303-20.8286-13.254564l13.254563-9.710303c20.051776 11.361054 44.667394 28.402636 56.853824 40.880376L418.125646 791.389692a172.843393 172.843393 0 0 0-17.041582-15.439381z m-50.881988 17.866957a272.908065 272.908065 0 0 1-68.214878 36.025224 94.092836 94.092836 0 0 0-15.196624-13.691527c23.838794-7.03997 49.522545-18.158267 65.495993-29.762078zM292.280119 699.141814c1.068133-7.331279 2.184818-15.973448 2.961643-24.615618h-36.802048a89.09203 89.09203 0 0 1 22.188042 17.332891l-7.574036 7.282727a98.947987 98.947987 0 0 0-23.304728-18.692333l6.505903-5.971837h-21.362666c-0.825376 8.64217-2.184818 17.332891-2.961642 24.615619z m-53.406666-58.747333c-0.825376 7.331279-1.6022 15.439382-2.718885 23.256176h38.841212a78.410697 78.410697 0 0 0-21.119909-16.507515l7.03997-6.748661a85.547769 85.547769 0 0 1 22.188042 16.264758l-7.039969 7.039969H296.164241c0.825376-7.865345 1.359442-15.973448 1.893509-23.256175z m183.281969-12.477739a129.972405 129.972405 0 0 1-28.159879 50.63923 133.759423 133.759423 0 0 0 51.998673 26.800436 64.282206 64.282206 0 0 0-11.652364 15.439382 146.382817 146.382817 0 0 1-52.775497-30.587455 175.562278 175.562278 0 0 1-46.026836 27.334503 65.6902 65.6902 0 0 0-11.603812-13.545872 161.870751 161.870751 0 0 0 46.269594-25.440994 154.879332 154.879332 0 0 1-21.653976-33.549097A105.745199 105.745199 0 0 1 335.005453 660.300602a70.448248 70.448248 0 0 0-13.011806-12.18643 116.523636 116.523636 0 0 0 33.549096-56.853824l17.575649 3.252952a184.495756 184.495756 0 0 1-6.505903 18.401024h73.701199v15.148072z m-51.707364 162.162059a409.532028 409.532028 0 0 1 67.972121 31.121521l-15.148072 11.361055a408.463895 408.463895 0 0 0-66.855436-31.946897z m-11.895121-160.219999a135.021763 135.021763 0 0 0 23.547485 37.093358 106.279266 106.279266 0 0 0 22.188042-38.841212H359.28121z" fill="#FFFFFF" p-id="2714"></path><path d="M365.010289 14.565454m206.683799 0l316.652979 0q206.683799 0 206.683799 206.683799l0 275.62695q0 206.683799-206.683799 206.683799l-316.652979 0q-206.683799 0-206.683799-206.683799l0-275.62695q0-206.683799 206.683799-206.683799Z" fill="#E39C83" p-id="2715"></path><path d="M649.862026 264.023138a196.002466 196.002466 0 0 1-28.791048 36.073775 101.958181 101.958181 0 0 0-18.061163-11.943672 158.617799 158.617799 0 0 0 45.395666-67.195297l20.634394 4.855152a240.281447 240.281447 0 0 1-8.739273 19.809018h69.817079v18.352472h-40.443412a159.880138 159.880138 0 0 1 12.52629 26.169267l-18.886539 7.282727a183.233417 183.233417 0 0 0-15.439382-33.451994z m-30.247593 69.525769h20.925703v153.616993h-20.925703z m31.41283-40.443412a200.420653 200.420653 0 0 1 29.956284 36.073776l-17.187236 11.069745a179.640605 179.640605 0 0 0-29.130909-36.656394z m46.560903 154.78223v14.565454h-20.051776V348.405671h112.008345v99.482054zM846.835522 461.239391c0 12.8176-3.495709 18.643782-13.400218 22.090939s-26.460576 2.913091-52.969703 2.913091a72.147551 72.147551 0 0 0-7.282727-18.886539c20.051776 0.582618 39.860794 0.582618 45.104358 0S825.375753 466.094543 825.375753 461.239391V321.022616h-135.944242v-19.420606h157.112702z m-149.247356-95.986345v23.838794h71.273623v-23.838794z m71.273623 65.447442v-25.586648h-71.273623v25.586648z m88.169551-185.029823v18.352473h-46.852211a155.364848 155.364848 0 0 1 14.274145 25.00403l-18.935091 8.447964a155.364848 155.364848 0 0 0-18.983642-33.451994h-22.090939a144.343654 144.343654 0 0 1-22.964867 30.830212 166.434593 166.434593 0 0 0-17.478545-11.943673 147.402399 147.402399 0 0 0 36.656393-61.660424l20.343085 4.855152a124.34043 124.34043 0 0 1-7.282727 19.809018z" fill="#FFFFFF" p-id="2716"></path></svg>