<?xml version="1.0" standalone="no"?><!DOCTYPE svg PUBLIC "-//W3C//DTD SVG 1.1//EN" "http://www.w3.org/Graphics/SVG/1.1/DTD/svg11.dtd"><svg t="1644903130997" class="icon" viewBox="0 0 1024 1024" version="1.1" xmlns="http://www.w3.org/2000/svg" p-id="6544" xmlns:xlink="http://www.w3.org/1999/xlink" width="400" height="400"><defs><style type="text/css"></style></defs><path d="M311.182222 427.804444V40.96A511.943111 511.943111 0 0 0 37.376 320.568889l273.92 273.635555V427.747556z" fill="#FFA92A" p-id="6545"></path><path d="M428.544 310.613333L702.407111 36.977778A509.838222 509.838222 0 0 0 511.772444 0.227556 509.44 509.44 0 0 0 311.182222 40.96v386.730667l117.191111-117.191111 0.113778 0.113777z" fill="#FFF75F" p-id="6546"></path><path d="M982.129778 310.613333H595.057778l117.304889 117.191111 273.863111 273.521778c24.462222-60.472889 36.977778-125.155556 36.977778-190.350222a508.017778 508.017778 0 0 0-40.96-200.305778z" fill="#32D1F5" p-id="6547"></path><path d="M712.248889 594.147556v386.673777a512 512 0 0 0 273.92-279.495111L712.305778 427.804444v166.343112z" fill="#0060FF" p-id="6548"></path><path d="M595.000889 711.224889l-273.863111 273.635555a509.838222 509.838222 0 0 0 190.691555 36.864 509.44 509.44 0 0 0 200.533334-40.846222v-386.673778l-117.248 117.077334-0.113778-0.056889z" fill="#7945F5" p-id="6549"></path><path d="M428.544 711.224889H41.358222a512 512 0 0 0 279.722667 273.635555l273.976889-273.635555H428.487111z" fill="#F743A0" p-id="6550"></path><path d="M311.182222 594.147556L37.376 320.512a508.359111 508.359111 0 0 0-36.920889 190.464c0 71.111111 14.620444 138.808889 40.96 200.248889h387.128889l-117.191111-117.077333H311.182222z" fill="#F33E3E" p-id="6551"></path><path d="M595.000889 310.613333h387.128889A512 512 0 0 0 702.407111 36.977778L428.487111 310.613333h166.570667-0.056889z" fill="#93EB5C" p-id="6552"></path></svg>