<?xml version="1.0" standalone="no"?><!DOCTYPE svg PUBLIC "-//W3C//DTD SVG 1.1//EN" "http://www.w3.org/Graphics/SVG/1.1/DTD/svg11.dtd"><svg t="1643958917950" class="icon" viewBox="0 0 1024 1024" version="1.1" xmlns="http://www.w3.org/2000/svg" p-id="15060" xmlns:xlink="http://www.w3.org/1999/xlink" width="400" height="400"><defs><style type="text/css"></style></defs><path d="M698.368 0m60.643556 0l0.113777 0q60.643556 0 60.643556 60.643556l0 64.512q0 60.643556-60.643556 60.643555l-0.113777 0q-60.643556 0-60.643556-60.643555l0-64.512q0-60.643556 60.643556-60.643556Z" fill="#3A77D9" p-id="15061"></path><path d="M204.344889 0m60.643555 0l0.113778 0q60.643556 0 60.643556 60.643556l0 64.512q0 60.643556-60.643556 60.643555l-0.113778 0q-60.643556 0-60.643555-60.643555l0-64.512q0-60.643556 60.643555-60.643556Z" fill="#3A77D9" p-id="15062"></path><path d="M885.76 56.888889h-35.726222v84.423111a91.022222 91.022222 0 0 1-91.022222 91.022222 91.022222 91.022222 0 0 1-91.022223-91.022222V56.888889H356.010667v84.423111a91.022222 91.022222 0 0 1-182.044445 0V56.888889H138.24A136.533333 136.533333 0 0 0 1.706667 193.422222v694.044445a136.533333 136.533333 0 0 0 136.533333 136.533333h747.52a136.533333 136.533333 0 0 0 136.533333-136.533333V193.422222a136.533333 136.533333 0 0 0-136.533333-136.533333z m98.986667 838.200889a86.471111 86.471111 0 0 1-86.243556 86.243555h-773.688889a86.471111 86.471111 0 0 1-85.560889-86.243555V380.131556a86.471111 86.471111 0 0 1 86.243556-86.243556h773.688889a86.471111 86.471111 0 0 1 86.243555 86.243556z" fill="#3A77D9" p-id="15063"></path><path d="M161.905778 392.305778h115.256889v115.256889H161.905778zM454.428444 392.305778h115.256889v115.256889H454.428444zM746.837333 392.305778h115.256889v115.256889H746.837333zM161.905778 576.512h115.256889V691.768889H161.905778zM454.428444 576.512h115.256889V691.768889H454.428444zM746.837333 576.512h115.256889V691.768889H746.837333zM161.905778 760.718222h115.256889v115.256889H161.905778zM454.428444 760.718222h115.256889v115.256889H454.428444zM746.837333 760.718222h115.256889v115.256889H746.837333z" fill="#3A77D9" p-id="15064"></path></svg>