<?xml version="1.0" standalone="no"?><!DOCTYPE svg PUBLIC "-//W3C//DTD SVG 1.1//EN" "http://www.w3.org/Graphics/SVG/1.1/DTD/svg11.dtd"><svg t="1644371746365" class="icon" viewBox="0 0 1024 1024" version="1.1" xmlns="http://www.w3.org/2000/svg" p-id="2945" xmlns:xlink="http://www.w3.org/1999/xlink" width="400" height="400"><defs><style type="text/css"></style></defs><path d="M907.693827 1023.8194H118.653968C54.179894 1023.8194 1.986596 971.626102 1.986596 907.152028V116.667372C1.986596 52.193298 54.179894 0 118.653968 0h789.039859c64.474074 0 116.667372 52.193298 116.667372 116.667372v790.484656c0 64.474074-52.193298 116.667372-116.667372 116.667372z" fill="#1384C7" p-id="2946"></path><path d="M691.877249 713.368607l204.258201-204.258201-204.258201-210.759789-57.430688 57.430688 153.3291 153.329101-153.3291 153.3291 57.430688 50.929101z m-302.504409 38.648324l163.80388-504.053615 72.781657 23.658553-163.80388 504.053616-72.781657-23.658554z m0 0M391.901235 662.258907l-153.329101-153.329101L391.901235 355.781305l-57.430688-57.430688L130.031746 509.110406 334.289947 713.368607l57.611288-51.1097z m0 0" fill="#FFFFFF" p-id="2947"></path><path d="M513.083598 0H119.015168C54.360494 0 1.986596 52.373898 1.986596 117.209171v789.581658c0 64.654674 52.373898 117.209171 117.209171 117.209171h394.068431V0z" fill="#FFFFFF" opacity=".1" p-id="2948"></path></svg>