<?xml version="1.0" encoding="UTF-8" standalone="no"?>
<!DOCTYPE svg PUBLIC "-//W3C//DTD SVG 1.1//EN" "http://www.w3.org/Graphics/SVG/1.1/DTD/svg11.dtd">
<!-- 由 Microsoft Visio, SVG Export 生成 encryption.svg 页-1 -->
<svg xmlns="http://www.w3.org/2000/svg" xmlns:xlink="http://www.w3.org/1999/xlink" xmlns:ev="http://www.w3.org/2001/xml-events"
		xmlns:v="http://schemas.microsoft.com/visio/2003/SVGExtensions/" width="4.88522in" height="5.37046in"
		viewBox="0 0 351.736 386.673" xml:space="preserve" color-interpolation-filters="sRGB" class="st4">
	<v:documentProperties v:langID="2052" v:metric="true" v:viewMarkup="false"/>

	<style type="text/css">
	<![CDATA[
		.st1 {fill:#d8e7eb;stroke:none;stroke-linecap:round;stroke-linejoin:round;stroke-width:0.24}
		.st2 {fill:#7f7f7f;fill-opacity:0.85;stroke:none;stroke-linecap:round;stroke-linejoin:round;stroke-width:0.24}
		.st3 {fill:#1ca6b0;stroke:none;stroke-linecap:round;stroke-linejoin:round;stroke-width:0.24}
		.st4 {fill:none;fill-rule:evenodd;font-size:12px;overflow:visible;stroke-linecap:square;stroke-miterlimit:3}
	]]>
	</style>

	<g v:mID="0" v:index="1" v:groupContext="foregroundPage">
		<title>页-1</title>
		<v:pageProperties v:drawingScale="0.0393701" v:pageScale="0.0393701" v:drawingUnits="24" v:shadowOffsetX="8.50394"
				v:shadowOffsetY="-8.50394"/>
		<g id="shape26-1" v:mID="26" v:groupContext="shape" transform="translate(0.12,-0.12)">
			<title>工作表.26</title>
			<path d="M351.5 64.44 L175.75 0.24 L0 64.44 A313.688 153.974 -96.12 0 0 175.75 386.67 A313.688 153.974 -83.88 0 0 351.5
						 64.44 Z" class="st1"/>
		</g>
		<g id="group49-3" transform="translate(90.8289,-79.9507)" v:mID="49" v:groupContext="group">
			<title>工作表.49</title>
			<g id="shape48-4" v:mID="48" v:groupContext="shape" transform="translate(15.9387,-110.017)">
				<title>工作表.48</title>
				<path d="M138.2 339.01 L138.2 332.81 L137.92 332.81 A69.1004 69.1004 -180 0 0 0.28 332.81 L0 332.81 L0 339.02 L0
							 386.67 L26.13 386.67 L26.13 339.02 A42.9685 42.9685 0 0 1 112.07 339.02 L112.07 386.67 L138.2 386.67
							 L138.2 339.02 L138.2 339.01 Z" class="st2"/>
			</g>
			<g id="shape36-6" v:mID="36" v:groupContext="shape">
				<title>工作表.36</title>
				<path d="M95.67 320.14 L95.67 351.26 L74.41 351.26 L74.41 320.14 A21.7087 21.7087 0 0 1 63.33 301.21 A21.7087 21.7087
							 0 0 1 106.75 301.21 A21.7087 21.7087 0 0 1 95.67 320.14 ZM17.01 386.67 L153.07 386.67 A17.0076 17.0076
							 -180 0 0 170.08 369.67 L170.08 261.1 A17.0076 17.0076 -180 0 0 153.07 244.09 L17.01 244.09 A17.0076
							 17.0076 -180 0 0 0 261.1 L0 369.67 A17.0076 17.0076 -180 0 0 17.01 386.67 Z" class="st3"/>
			</g>
		</g>
	</g>
</svg>
