<?xml version="1.0" standalone="no"?><!DOCTYPE svg PUBLIC "-//W3C//DTD SVG 1.1//EN" "http://www.w3.org/Graphics/SVG/1.1/DTD/svg11.dtd"><svg t="1644132882967" class="icon" viewBox="0 0 1263 1024" version="1.1" xmlns="http://www.w3.org/2000/svg" p-id="6877" xmlns:xlink="http://www.w3.org/1999/xlink" width="493.359375" height="400"><defs><style type="text/css"></style></defs><path d="M1174.854421 606.879703c-44.470676 0-81.297804 32.719809-87.728194 75.396559h-231.40368a22.585412 22.585412 0 1 0 0 45.170824h10.737751v60.435336h0.232307a21.78847 21.78847 0 0 0 21.572295 18.78461 21.804602 21.804602 0 0 0 21.804602-21.804602c0-1.026023-0.093568-2.029461-0.232307-3.019992v-54.398579h18.465187v35.613969a21.804602 21.804602 0 1 0 43.609205 0V727.443859h120.131807c12.799476 33.271539 45.041765 56.889427 82.817479 56.889427 49.003891 0 88.728405-39.72774 88.728405-88.728405-0.006453-49.000665-39.734193-88.725178-88.734857-88.725178z m0 143.049547c-29.99988 0-54.321143-24.321262-54.321143-54.321142 0-29.99988 24.321262-54.321143 54.321143-54.321143s54.321143 24.321262 54.321142 54.321143c0 29.99988-24.321262 54.321143-54.321142 54.321142zM619.11777 566.393739l-0.151645-0.032265 0.151645 0.032265zM1097.092847 430.406972c-0.890511-8.511474-11.608902-16.574466-30.125714-23.821157-2.574737 0.909869-5.288213 1.810059-8.159786 2.687664 20.126829 6.811115 31.445347 14.470796 31.445346 22.572507 0 28.360825-138.651845 51.352774-309.681491 51.352774-48.661884 0-94.697407-1.86491-135.667344-5.178513v95.84281l-0.016133-0.003226c20.910865 7.643549 41.618462 19.494437 58.867264 37.675693 24.476134 1.009891 50.068632 1.55194 76.419355 1.551941 175.072435 0 316.999165-23.682418 316.999165-52.911168v-129.879025l-0.080662 0.1097zM610.725676 564.709512l-0.18391-0.032265 0.18391 0.032265zM488.425669 479.065629v-12.441335h16.822906v16.832585h-12.015439a209.599077 209.599077 0 0 1 8.327564 8.28562s25.621537 41.760427 28.26403 63.781203l24.563249-1.697132 7.998462-0.18391v-12.847873l-0.045171-41.805598h-15.038658v-16.819679h15.038658v-15.274191c-54.350181-7.714531-88.802614-19.168562-88.802614-31.964811 0-6.591714 9.153545-12.831741 25.450533-18.384526a175.201495 175.201495 0 0 1-7.024063-2.303712c-15.170944 5.936737-23.943763 12.544583-24.669723 19.513796l-0.070983-0.100021v29.302959a179.437873 179.437873 0 0 1 21.201249 16.106625z m29.122276-4.662274h16.816453v16.816453h-16.816453v-16.816453zM577.789692 417.594591v-16.884209h-0.41299" fill="#d81e06" p-id="6878"></path><path d="M1097.092847 247.803915c-3.300697-31.819619-142.57848-57.425024-313.934002-57.425023-117.340895 0-219.623774 12.00576-273.515794 29.793385 2.832856 1.051835 5.6399 2.152067 8.408226 3.329735 53.098304-15.316136 152.109524-25.615084 265.501199-25.615084 169.422856 0 306.764747 22.99195 306.764747 51.352774S952.975332 300.592476 783.552476 300.592476c-67.685254 0-130.237166-3.671743-180.967228-9.885957 24.340621 33.248953 38.979195 74.180173 39.595454 118.554055h0.593674v15.648464c42.250853 3.565269 89.922205 5.57537 140.384469 5.57537 173.4237 0 314.011438-23.688871 314.011437-52.904715V247.690988l-0.077435 0.112927zM567.20036 405.288767c-1.309954-31.316287-12.228387-59.786812-29.509454-82.165729l-15.396798 0.445255-0.513011-17.706963a127.897962 127.897962 0 0 0-13.667401-10.837771l0.558182 19.423454-18.258692 0.525918-0.593674-20.594669 16.564787-0.474294c-12.192896-8.059766-25.711878-13.91584-40.098786-17.100384l3.120013 108.093783c0.464614 16.02919 38.659773 29.306185 98.65308 37.311101" fill="#d81e06" p-id="6879"></path><path d="M1097.092847 57.418571C1093.759885 25.605404 953.156015 0 780.174344 0c-173.00103 0-313.617806 25.608631-316.918503 57.434703l-0.080662-0.125833v129.882252c0 29.215844 141.923503 52.901488 316.999165 52.901488 175.072435 0 316.999165-23.685644 316.999165-52.901488V57.30887l-0.080662 0.109701z m-316.521645-49.913761c171.032873 0 309.681491 22.988723 309.681491 51.352774 0 28.360825-138.651845 51.346321-309.681491 51.346321-171.042552 0-309.694397-22.985497-309.694398-51.346321-0.003226-28.364051 138.651845-51.352774 309.694398-51.352774z m-270.983001 110.597536h-20.539819v-20.539819h20.539819v20.539819z m35.549438 9.485874h-20.536592v-20.53982h20.536592v20.53982z m36.343155 9.476193h-20.543046v-20.539819h20.543046v20.539819z" fill="#d81e06" p-id="6880"></path><path d="M848.172567 839.454598c-24.737479-72.595968-118.305615-79.584539-118.305615-79.58454 17.206858-72.057144-15.593614-120.993279-15.593614-120.993279-54.850287-96.794623-188.749516-76.361278-188.749516-76.361278-3.226487-26.88632-30.112807-61.303261-30.112807-61.303262-112.388237-118.305615-244.138626-40.331093-244.138626-40.331093-112.120439 59.690018-97.601245 175.843566-97.601245 175.843566-164.283061 43.018757-153.525952 193.589247-153.525952 193.589247-0.538823 161.863196 159.172305 193.657003 159.172305 193.657003l597.439001-0.003227c27.963967-0.003226 74.209211-43.62211 74.209211-43.62211 53.775866-57.002354 17.206858-140.891027 17.206858-140.891027z m-386.910695-23.659833v67.756237c-35.223563 44.632001-61.842085 0-61.842085 0V815.526967c-12.099328-7.527395-26.079698-26.889546-26.079698-26.889547-21.77879-32.264874-5.378555-65.213764-5.378555-65.213764 18.552303-41.260321 65.604169-40.989297 65.604169-40.989296 58.344572 5.10753 65.604169 63.184304 65.60417 63.184303 0.003226 53.77264-37.908001 70.176102-37.908001 70.176102z" fill="#d81e06" p-id="6881" data-spm-anchor-id="a313x.7781069.0.i1"></path><path d="M637.850756 409.257347c-1.56162-111.633239-92.490489-201.655465-204.491548-201.655465s-202.929928 90.022226-204.491548 201.655465h-0.180683v58.215513a204.678684 204.678684 0 0 1 25.8119-16.271176s13.486718-7.97265 35.491362-14.951543v-35.539759h0.125833c1.080873-74.454424 63.845734-134.496129 141.158825-134.496129 77.316319 0 140.081179 60.041705 141.158826 134.496129h0.416217v150.702775c19.178241 1.013117 42.508972 4.323493 65.604169 12.767211v-154.923021h-0.603353z" fill="#d81e06" p-id="6882"></path></svg>