<?xml version="1.0" standalone="no"?><!DOCTYPE svg PUBLIC "-//W3C//DTD SVG 1.1//EN" "http://www.w3.org/Graphics/SVG/1.1/DTD/svg11.dtd"><svg t="1644586167442" class="icon" viewBox="0 0 1024 1024" version="1.1" xmlns="http://www.w3.org/2000/svg" p-id="7067" xmlns:xlink="http://www.w3.org/1999/xlink" width="400" height="400"><defs><style type="text/css"></style></defs><path d="M514.048 905.216l-2.048-2.56h-3.584c-110.592 0.512-299.52 1.536-324.608 1.536h-4.096c-31.232 0-57.344-24.576-57.344-54.784V169.984c0-30.208 25.6-54.784 56.832-54.784h334.848v166.912c0 48.128 39.424 87.552 87.552 87.552H768v355.328l3.072 2.048c10.24 6.144 18.944 12.8 28.16 19.968l10.752 8.704V352.768c0-5.632-2.048-11.264-5.632-15.36l-258.048-259.584c-4.096-4.096-9.728-6.144-15.36-6.144H179.2c-55.296 0-100.352 44.032-100.352 98.304v679.424c0 54.272 45.056 97.28 100.352 97.28 0 0 226.304-0.512 357.376-1.024l7.168 0.512v-10.24l-2.56-2.048c-9.216-8.704-18.944-18.432-27.136-28.672z m43.52-748.032l165.888 166.912h-123.904c-23.04 0-41.984-18.432-41.984-41.984V157.184zM189.952 324.096h231.936" fill="#1296db" p-id="7068"></path><path d="M421.888 342.016H189.952c-9.728 0-17.92-8.192-17.92-17.92s8.192-17.92 17.92-17.92h232.448c9.728 0 17.92 8.192 17.92 17.92s-8.192 17.92-18.432 17.92zM547.328 807.424h135.68M683.008 825.344h-135.68c-9.728 0-17.92-8.192-17.92-17.92s8.192-17.92 17.92-17.92h135.68c9.728 0 17.92 8.192 17.92 17.92s-8.192 17.92-17.92 17.92zM189.952 439.296H670.72M670.72 457.216H189.44c-9.728 0-17.92-8.192-17.92-17.92s8.192-17.92 17.92-17.92h481.28c9.728 0 17.92 8.192 17.92 17.92s-7.68 17.92-17.92 17.92zM181.76 555.008h480.768M662.528 572.928h-481.28c-9.728 0-17.92-8.192-17.92-17.92s8.192-17.92 17.92-17.92h481.28c9.728 0 17.92 8.192 17.92 17.92s-7.68 17.92-17.92 17.92z" fill="#1296db" p-id="7069"></path><path d="M181.76 675.328h361.984M543.744 693.248H181.76c-9.728 0-17.92-8.192-17.92-17.92s8.192-17.92 17.92-17.92h361.984c9.728 0 17.92 8.192 17.92 17.92s-8.192 17.92-17.92 17.92z" fill="#1296db" p-id="7070"></path><path d="M181.76 807.424h342.016M523.776 825.344H181.76c-9.728 0-17.92-8.192-17.92-17.92s8.192-17.92 17.92-17.92h342.016c9.728 0 17.92 8.192 17.92 17.92s-8.192 17.92-17.92 17.92z" fill="#1296db" p-id="7071"></path><path d="M793.6 806.912c-14.336-73.728-86.016-122.368-160.256-107.52-73.728 14.336-121.856 86.016-107.52 159.744 14.336 73.728 86.016 121.856 159.744 107.52 74.24-14.336 122.368-86.016 108.032-159.744z m-42.496 87.552c-16.384 24.064-41.472 40.96-70.144 46.592-28.672 5.632-58.368-0.512-82.432-16.896-24.064-16.384-40.96-41.472-46.592-70.144-5.632-28.672 0.512-58.368 16.896-82.432 16.384-24.064 41.472-40.96 70.144-46.592 28.672-5.632 58.368 0.512 82.432 16.896 24.064 16.384 40.96 41.472 46.592 70.144 5.632 28.672-0.512 58.368-16.896 82.432zM870.912 979.968L793.6 928.256l-17.92 27.136 77.312 51.2c7.68 5.12 17.408 3.072 22.528-4.608 2.56-3.584 3.072-7.68 2.56-11.776-1.024-4.096-3.584-7.68-7.168-10.24z" fill="#1296db" p-id="7072"></path></svg>