<?xml version="1.0" encoding="UTF-8" standalone="no"?>
<!DOCTYPE svg PUBLIC "-//W3C//DTD SVG 1.1//EN" "http://www.w3.org/Graphics/SVG/1.1/DTD/svg11.dtd">
<!-- 由 Microsoft Visio, SVG Export 生成 find-file.svg 页-1 -->
<svg xmlns="http://www.w3.org/2000/svg" xmlns:xlink="http://www.w3.org/1999/xlink" xmlns:ev="http://www.w3.org/2001/xml-events"
		xmlns:v="http://schemas.microsoft.com/visio/2003/SVGExtensions/" width="4.16418in" height="4.47218in"
		viewBox="0 0 299.821 321.997" xml:space="preserve" color-interpolation-filters="sRGB" class="st5">
	<v:documentProperties v:langID="2052" v:metric="true" v:viewMarkup="false"/>

	<style type="text/css">
	<![CDATA[
		.st1 {fill:#efa239;stroke:none;stroke-linecap:round;stroke-linejoin:round;stroke-width:0.24}
		.st2 {fill:#d2f0e5;stroke:none;stroke-linecap:round;stroke-linejoin:round;stroke-width:0.24}
		.st3 {fill:#457b9d;stroke:none;stroke-linecap:round;stroke-linejoin:round;stroke-width:0.24}
		.st4 {fill:#a3d8da;stroke:none;stroke-linecap:round;stroke-linejoin:round;stroke-width:0.24}
		.st5 {fill:none;fill-rule:evenodd;font-size:12px;overflow:visible;stroke-linecap:square;stroke-miterlimit:3}
	]]>
	</style>

	<g v:mID="0" v:index="1" v:groupContext="foregroundPage">
		<title>页-1</title>
		<v:pageProperties v:drawingScale="0.0393701" v:pageScale="0.0393701" v:drawingUnits="24" v:shadowOffsetX="8.50394"
				v:shadowOffsetY="-8.50394"/>
		<g id="shape62-1" v:mID="62" v:groupContext="shape" transform="translate(452.514,3.24981) rotate(45)">
			<title>圆角矩形.62</title>
			<v:userDefs>
				<v:ud v:nameU="CTypeTopLeftSnip" v:prompt="" v:val="VT0(0):5"/>
				<v:ud v:nameU="CTypeTopRightSnip" v:prompt="" v:val="VT0(0):5"/>
				<v:ud v:nameU="CTypeBotLeftSnip" v:prompt="" v:val="VT0(0):5"/>
				<v:ud v:nameU="CTypeBotRightSnip" v:prompt="" v:val="VT0(0):5"/>
				<v:ud v:nameU="CornerLockHoriz" v:prompt="" v:val="VT0(1):5"/>
				<v:ud v:nameU="CornerLockVert" v:prompt="" v:val="VT0(1):5"/>
				<v:ud v:nameU="CornerLockDiag" v:prompt="" v:val="VT0(0):5"/>
				<v:ud v:nameU="TopLeftOffset" v:prompt="" v:val="VT0(0.15748031496063):24"/>
				<v:ud v:nameU="TopRightOffset" v:prompt="" v:val="VT0(0.15748031496063):24"/>
				<v:ud v:nameU="BotLeftOffset" v:prompt="" v:val="VT0(0.15748031496063):24"/>
				<v:ud v:nameU="BotRightOffset" v:prompt="" v:val="VT0(0.15748031496063):24"/>
				<v:ud v:nameU="visVersion" v:prompt="" v:val="VT0(15):26"/>
				<v:ud v:nameU="TopLeftOffset" v:prompt="" v:val="VT0(0.16993968275651):1"/>
				<v:ud v:nameU="TopRightOffset" v:prompt="" v:val="VT0(0.16993968275651):1"/>
				<v:ud v:nameU="BotLeftOffset" v:prompt="" v:val="VT0(0.16993968275651):1"/>
				<v:ud v:nameU="BotRightOffset" v:prompt="" v:val="VT0(0.16993968275651):1"/>
			</v:userDefs>
			<path d="M12.24 322 L69.35 322 A12.2355 12.2355 -180 0 0 81.59 309.76 A12.2355 12.2355 -180 0 0 69.35 297.53 L12.24 297.53
						 A12.2355 12.2355 -180 0 0 0 309.76 A12.2355 12.2355 -180 0 0 12.24 322 Z" class="st1"/>
		</g>
		<g id="shape25-3" v:mID="25" v:groupContext="shape" transform="translate(63.8992,-208.491)">
			<title>矩形</title>
			<v:userDefs>
				<v:ud v:nameU="visVersion" v:val="VT0(15):26"/>
			</v:userDefs>
			<rect x="0" y="236.958" width="113.386" height="85.0394" class="st2"/>
		</g>
		<g id="shape34-5" v:mID="34" v:groupContext="shape" transform="translate(241.064,322.117) rotate(180)">
			<title>工作表.34</title>
			<path d="M0 251.13 L85.04 322 L85.04 274.87 A23.7358 23.7358 -180 0 0 61.3 251.13 L0 251.13 Z" class="st3"/>
		</g>
		<g id="shape39-7" v:mID="39" v:groupContext="shape" transform="translate(0.12,-0.12)">
			<title>工作表.39</title>
			<path d="M155.91 0.24 L21.26 0.24 A21.2595 21.2595 -180 0 0 -0 21.5 L0 300.74 A21.2595 21.2595 -180 0 0 21.26 322 L219.68
						 322 A21.2595 21.2595 -180 0 0 240.94 300.74 L240.94 71.11 L155.91 71.11 L155.91 0.24 Z" class="st2"/>
		</g>
		<g id="shape27-9" v:mID="27" v:groupContext="shape" transform="translate(30.2379,-198.545)">
			<title>圆角矩形</title>
			<v:userDefs>
				<v:ud v:nameU="CTypeTopLeftSnip" v:prompt="" v:val="VT0(0):5"/>
				<v:ud v:nameU="CTypeTopRightSnip" v:prompt="" v:val="VT0(0):5"/>
				<v:ud v:nameU="CTypeBotLeftSnip" v:prompt="" v:val="VT0(0):5"/>
				<v:ud v:nameU="CTypeBotRightSnip" v:prompt="" v:val="VT0(0):5"/>
				<v:ud v:nameU="CornerLockHoriz" v:prompt="" v:val="VT0(1):5"/>
				<v:ud v:nameU="CornerLockVert" v:prompt="" v:val="VT0(1):5"/>
				<v:ud v:nameU="CornerLockDiag" v:prompt="" v:val="VT0(0):5"/>
				<v:ud v:nameU="TopLeftOffset" v:prompt="" v:val="VT0(0.15748031496063):24"/>
				<v:ud v:nameU="TopRightOffset" v:prompt="" v:val="VT0(0.15748031496063):24"/>
				<v:ud v:nameU="BotLeftOffset" v:prompt="" v:val="VT0(0.15748031496063):24"/>
				<v:ud v:nameU="BotRightOffset" v:prompt="" v:val="VT0(0.15748031496063):24"/>
				<v:ud v:nameU="visVersion" v:prompt="" v:val="VT0(15):26"/>
				<v:ud v:nameU="TopLeftOffset" v:prompt="" v:val="VT0(0.098425193709222):1"/>
				<v:ud v:nameU="TopRightOffset" v:prompt="" v:val="VT0(0.098425193709222):1"/>
				<v:ud v:nameU="BotLeftOffset" v:prompt="" v:val="VT0(0.098425193709222):1"/>
				<v:ud v:nameU="BotRightOffset" v:prompt="" v:val="VT0(0.098425193709222):1"/>
			</v:userDefs>
			<path d="M7.09 322 L145.28 322 A7.0865 7.0865 -180 0 0 152.36 314.91 A7.0865 7.0865 -180 0 0 145.28 307.82 L7.09 307.82
						 A7.0865 7.0865 -180 0 0 -0 314.91 A7.0865 7.0865 -180 0 0 7.09 322 Z" class="st3"/>
		</g>
		<g id="shape44-11" v:mID="44" v:groupContext="shape" transform="translate(30.2379,-163.112)">
			<title>圆角矩形.44</title>
			<v:userDefs>
				<v:ud v:nameU="CTypeTopLeftSnip" v:prompt="" v:val="VT0(0):5"/>
				<v:ud v:nameU="CTypeTopRightSnip" v:prompt="" v:val="VT0(0):5"/>
				<v:ud v:nameU="CTypeBotLeftSnip" v:prompt="" v:val="VT0(0):5"/>
				<v:ud v:nameU="CTypeBotRightSnip" v:prompt="" v:val="VT0(0):5"/>
				<v:ud v:nameU="CornerLockHoriz" v:prompt="" v:val="VT0(1):5"/>
				<v:ud v:nameU="CornerLockVert" v:prompt="" v:val="VT0(1):5"/>
				<v:ud v:nameU="CornerLockDiag" v:prompt="" v:val="VT0(0):5"/>
				<v:ud v:nameU="TopLeftOffset" v:prompt="" v:val="VT0(0.15748031496063):24"/>
				<v:ud v:nameU="TopRightOffset" v:prompt="" v:val="VT0(0.15748031496063):24"/>
				<v:ud v:nameU="BotLeftOffset" v:prompt="" v:val="VT0(0.15748031496063):24"/>
				<v:ud v:nameU="BotRightOffset" v:prompt="" v:val="VT0(0.15748031496063):24"/>
				<v:ud v:nameU="visVersion" v:prompt="" v:val="VT0(15):26"/>
				<v:ud v:nameU="TopLeftOffset" v:prompt="" v:val="VT0(0.098425193709222):1"/>
				<v:ud v:nameU="TopRightOffset" v:prompt="" v:val="VT0(0.098425193709222):1"/>
				<v:ud v:nameU="BotLeftOffset" v:prompt="" v:val="VT0(0.098425193709222):1"/>
				<v:ud v:nameU="BotRightOffset" v:prompt="" v:val="VT0(0.098425193709222):1"/>
			</v:userDefs>
			<path d="M7.09 322 L145.28 322 A7.0865 7.0865 -180 0 0 152.36 314.91 A7.0865 7.0865 -180 0 0 145.28 307.82 L7.09 307.82
						 A7.0865 7.0865 -180 0 0 -0 314.91 A7.0865 7.0865 -180 0 0 7.09 322 Z" class="st3"/>
		</g>
		<g id="shape52-13" v:mID="52" v:groupContext="shape" transform="translate(30.2379,-127.679)">
			<title>圆角矩形.52</title>
			<v:userDefs>
				<v:ud v:nameU="CTypeTopLeftSnip" v:prompt="" v:val="VT0(0):5"/>
				<v:ud v:nameU="CTypeTopRightSnip" v:prompt="" v:val="VT0(0):5"/>
				<v:ud v:nameU="CTypeBotLeftSnip" v:prompt="" v:val="VT0(0):5"/>
				<v:ud v:nameU="CTypeBotRightSnip" v:prompt="" v:val="VT0(0):5"/>
				<v:ud v:nameU="CornerLockHoriz" v:prompt="" v:val="VT0(1):5"/>
				<v:ud v:nameU="CornerLockVert" v:prompt="" v:val="VT0(1):5"/>
				<v:ud v:nameU="CornerLockDiag" v:prompt="" v:val="VT0(0):5"/>
				<v:ud v:nameU="TopLeftOffset" v:prompt="" v:val="VT0(0.15748031496063):24"/>
				<v:ud v:nameU="TopRightOffset" v:prompt="" v:val="VT0(0.15748031496063):24"/>
				<v:ud v:nameU="BotLeftOffset" v:prompt="" v:val="VT0(0.15748031496063):24"/>
				<v:ud v:nameU="BotRightOffset" v:prompt="" v:val="VT0(0.15748031496063):24"/>
				<v:ud v:nameU="visVersion" v:prompt="" v:val="VT0(15):26"/>
				<v:ud v:nameU="TopLeftOffset" v:prompt="" v:val="VT0(0.098425193709222):1"/>
				<v:ud v:nameU="TopRightOffset" v:prompt="" v:val="VT0(0.098425193709222):1"/>
				<v:ud v:nameU="BotLeftOffset" v:prompt="" v:val="VT0(0.098425193709222):1"/>
				<v:ud v:nameU="BotRightOffset" v:prompt="" v:val="VT0(0.098425193709222):1"/>
			</v:userDefs>
			<path d="M7.09 322 L145.28 322 A7.0865 7.0865 -180 0 0 152.36 314.91 A7.0865 7.0865 -180 0 0 145.28 307.82 L7.09 307.82
						 A7.0865 7.0865 -180 0 0 -0 314.91 A7.0865 7.0865 -180 0 0 7.09 322 Z" class="st3"/>
		</g>
		<g id="shape54-15" v:mID="54" v:groupContext="shape" transform="translate(30.2379,-92.246)">
			<title>圆角矩形.54</title>
			<v:userDefs>
				<v:ud v:nameU="CTypeTopLeftSnip" v:prompt="" v:val="VT0(0):5"/>
				<v:ud v:nameU="CTypeTopRightSnip" v:prompt="" v:val="VT0(0):5"/>
				<v:ud v:nameU="CTypeBotLeftSnip" v:prompt="" v:val="VT0(0):5"/>
				<v:ud v:nameU="CTypeBotRightSnip" v:prompt="" v:val="VT0(0):5"/>
				<v:ud v:nameU="CornerLockHoriz" v:prompt="" v:val="VT0(1):5"/>
				<v:ud v:nameU="CornerLockVert" v:prompt="" v:val="VT0(1):5"/>
				<v:ud v:nameU="CornerLockDiag" v:prompt="" v:val="VT0(0):5"/>
				<v:ud v:nameU="TopLeftOffset" v:prompt="" v:val="VT0(0.15748031496063):24"/>
				<v:ud v:nameU="TopRightOffset" v:prompt="" v:val="VT0(0.15748031496063):24"/>
				<v:ud v:nameU="BotLeftOffset" v:prompt="" v:val="VT0(0.15748031496063):24"/>
				<v:ud v:nameU="BotRightOffset" v:prompt="" v:val="VT0(0.15748031496063):24"/>
				<v:ud v:nameU="visVersion" v:prompt="" v:val="VT0(15):26"/>
				<v:ud v:nameU="TopLeftOffset" v:prompt="" v:val="VT0(0.098425193709222):1"/>
				<v:ud v:nameU="TopRightOffset" v:prompt="" v:val="VT0(0.098425193709222):1"/>
				<v:ud v:nameU="BotLeftOffset" v:prompt="" v:val="VT0(0.098425193709222):1"/>
				<v:ud v:nameU="BotRightOffset" v:prompt="" v:val="VT0(0.098425193709222):1"/>
			</v:userDefs>
			<path d="M7.09 322 L145.28 322 A7.0865 7.0865 -180 0 0 152.36 314.91 A7.0865 7.0865 -180 0 0 145.28 307.82 L7.09 307.82
						 A7.0865 7.0865 -180 0 0 -0 314.91 A7.0865 7.0865 -180 0 0 7.09 322 Z" class="st3"/>
		</g>
		<g id="shape55-17" v:mID="55" v:groupContext="shape" transform="translate(30.2379,-56.8129)">
			<title>圆角矩形.55</title>
			<v:userDefs>
				<v:ud v:nameU="CTypeTopLeftSnip" v:prompt="" v:val="VT0(0):5"/>
				<v:ud v:nameU="CTypeTopRightSnip" v:prompt="" v:val="VT0(0):5"/>
				<v:ud v:nameU="CTypeBotLeftSnip" v:prompt="" v:val="VT0(0):5"/>
				<v:ud v:nameU="CTypeBotRightSnip" v:prompt="" v:val="VT0(0):5"/>
				<v:ud v:nameU="CornerLockHoriz" v:prompt="" v:val="VT0(1):5"/>
				<v:ud v:nameU="CornerLockVert" v:prompt="" v:val="VT0(1):5"/>
				<v:ud v:nameU="CornerLockDiag" v:prompt="" v:val="VT0(0):5"/>
				<v:ud v:nameU="TopLeftOffset" v:prompt="" v:val="VT0(0.15748031496063):24"/>
				<v:ud v:nameU="TopRightOffset" v:prompt="" v:val="VT0(0.15748031496063):24"/>
				<v:ud v:nameU="BotLeftOffset" v:prompt="" v:val="VT0(0.15748031496063):24"/>
				<v:ud v:nameU="BotRightOffset" v:prompt="" v:val="VT0(0.15748031496063):24"/>
				<v:ud v:nameU="visVersion" v:prompt="" v:val="VT0(15):26"/>
				<v:ud v:nameU="TopLeftOffset" v:prompt="" v:val="VT0(0.098425193709222):1"/>
				<v:ud v:nameU="TopRightOffset" v:prompt="" v:val="VT0(0.098425193709222):1"/>
				<v:ud v:nameU="BotLeftOffset" v:prompt="" v:val="VT0(0.098425193709222):1"/>
				<v:ud v:nameU="BotRightOffset" v:prompt="" v:val="VT0(0.098425193709222):1"/>
			</v:userDefs>
			<path d="M7.09 322 L88.94 322 A7.0865 7.0865 -180 0 0 96.02 314.91 A7.0865 7.0865 -180 0 0 88.94 307.82 L7.09 307.82
						 A7.0865 7.0865 -180 0 0 -0 314.91 A7.0865 7.0865 -180 0 0 7.09 322 Z" class="st3"/>
		</g>
		<g id="shape56-19" v:mID="56" v:groupContext="shape" transform="translate(30.2379,-233.978)">
			<title>圆角矩形.56</title>
			<v:userDefs>
				<v:ud v:nameU="CTypeTopLeftSnip" v:prompt="" v:val="VT0(0):5"/>
				<v:ud v:nameU="CTypeTopRightSnip" v:prompt="" v:val="VT0(0):5"/>
				<v:ud v:nameU="CTypeBotLeftSnip" v:prompt="" v:val="VT0(0):5"/>
				<v:ud v:nameU="CTypeBotRightSnip" v:prompt="" v:val="VT0(0):5"/>
				<v:ud v:nameU="CornerLockHoriz" v:prompt="" v:val="VT0(1):5"/>
				<v:ud v:nameU="CornerLockVert" v:prompt="" v:val="VT0(1):5"/>
				<v:ud v:nameU="CornerLockDiag" v:prompt="" v:val="VT0(0):5"/>
				<v:ud v:nameU="TopLeftOffset" v:prompt="" v:val="VT0(0.15748031496063):24"/>
				<v:ud v:nameU="TopRightOffset" v:prompt="" v:val="VT0(0.15748031496063):24"/>
				<v:ud v:nameU="BotLeftOffset" v:prompt="" v:val="VT0(0.15748031496063):24"/>
				<v:ud v:nameU="BotRightOffset" v:prompt="" v:val="VT0(0.15748031496063):24"/>
				<v:ud v:nameU="visVersion" v:prompt="" v:val="VT0(15):26"/>
				<v:ud v:nameU="TopLeftOffset" v:prompt="" v:val="VT0(0.098425193709222):1"/>
				<v:ud v:nameU="TopRightOffset" v:prompt="" v:val="VT0(0.098425193709222):1"/>
				<v:ud v:nameU="BotLeftOffset" v:prompt="" v:val="VT0(0.098425193709222):1"/>
				<v:ud v:nameU="BotRightOffset" v:prompt="" v:val="VT0(0.098425193709222):1"/>
			</v:userDefs>
			<path d="M7.09 322 L88.94 322 A7.0865 7.0865 -180 0 0 96.02 314.91 A7.0865 7.0865 -180 0 0 88.94 307.82 L7.09 307.82
						 A7.0865 7.0865 -180 0 0 -0 314.91 A7.0865 7.0865 -180 0 0 7.09 322 Z" class="st3"/>
		</g>
		<g id="shape57-21" v:mID="57" v:groupContext="shape" transform="translate(148.939,-65.3169)">
			<title>圆形</title>
			<v:userDefs>
				<v:ud v:nameU="visVersion" v:val="VT0(15):26"/>
			</v:userDefs>
			<path d="M0 263.89 A58.1102 58.1102 0 0 1 116.22 263.89 A58.1102 58.1102 0 1 1 0 263.89 Z" class="st3"/>
		</g>
		<g id="shape59-23" v:mID="59" v:groupContext="shape" transform="translate(159.568,-75.9468)">
			<title>圆形.59</title>
			<v:userDefs>
				<v:ud v:nameU="visVersion" v:val="VT0(15):26"/>
			</v:userDefs>
			<path d="M0 274.52 A47.4803 47.4803 0 0 1 94.96 274.52 A47.4803 47.4803 0 0 1 0 274.52 Z" class="st4"/>
		</g>
	</g>
</svg>
