<?xml version="1.0" standalone="no"?><!DOCTYPE svg PUBLIC "-//W3C//DTD SVG 1.1//EN" "http://www.w3.org/Graphics/SVG/1.1/DTD/svg11.dtd"><svg t="1645520006741" class="icon" viewBox="0 0 1024 1024" version="1.1" xmlns="http://www.w3.org/2000/svg" p-id="3263" xmlns:xlink="http://www.w3.org/1999/xlink" width="400" height="400"><defs><style type="text/css"></style></defs><path d="M25.967045 0h839.064277v839.064277H25.967045z" fill="#EC6666" p-id="3264"></path><path d="M485.547424 631.903862h471.601419a40.245306 40.245306 0 0 1 40.135826 40.135825V983.141599a40.245306 40.245306 0 0 1-40.135826 40.135825H485.547424A40.245306 40.245306 0 0 1 445.411598 983.141599V672.039687a40.245306 40.245306 0 0 1 40.135826-40.135825z m0 0" fill="#ECC45C" p-id="3265"></path><path d="M485.547424 611.825001h471.601419a40.245306 40.245306 0 0 1 40.135826 40.135825v20.078861a40.245306 40.245306 0 0 1-40.135826 40.135825H485.547424a40.245306 40.245306 0 0 1-40.135826-40.135825v-20.078861a40.245306 40.245306 0 0 1 40.135826-40.135825z m0 0" fill="#F8D578" p-id="3266"></path><path d="M545.740213 641.932344c-25.093102 0-45.150066 9.021255-45.150066 20.078861s20.078861 20.078861 45.150066 20.07886 45.150066-9.043151 45.150067-20.100757-20.056964-20.078861-45.150067-20.07886z m351.193945 0c-25.093102 0-45.150066 9.021255-45.150067 20.078861s20.056964 20.078861 45.150067 20.07886 45.150066-9.021255 45.150066-20.07886-20.056964-20.078861-45.150066-20.078861z m-175.586024 150.514818a75.257409 75.257409 0 1 1-75.25741 75.25741 75.147928 75.147928 0 0 1 75.25741-75.25741z m0 0" fill="#D4B053" p-id="3267"></path><path d="M721.348134 812.504127a55.025275 55.025275 0 1 1-39.062909 16.115639 55.025275 55.025275 0 0 1 39.062909-16.115639z m0 0" fill="#E4E7E7" p-id="3268"></path><path d="M721.348134 842.61147a10.072275 10.072275 0 0 1 10.028482 10.028482v30.107343a10.028482 10.028482 0 0 1-20.078861 0V852.639952a10.072275 10.072275 0 0 1 10.028482-10.028482z m0 0" fill="#324D5B" p-id="3269"></path><path d="M721.348134 380.99474a210.685712 210.685712 0 0 0-210.707609 210.707608v60.192789c0 10.948125 15.546337 20.078861 35.034 20.078861s35.033999-9.021255 35.033999-20.078861v-60.1271a140.486336 140.486336 0 1 1 280.950776 0v60.192789c0 10.948125 15.546337 20.078861 35.033999 20.078861s35.033999-9.021255 35.033999-20.078861v-60.192789A210.685712 210.685712 0 0 0 721.348134 380.99474z m0 0" fill="#E4E7E7" p-id="3270"></path><path d="M721.348134 421.174357a170.440405 170.440405 0 0 0-170.571783 170.571783v80.271651c17.057178-1.510841 30.107343-9.524868 30.107343-20.078861v-60.170893a140.486336 140.486336 0 1 1 280.950776 0v60.192789c0 10.028482 13.13775 18.56802 30.107343 20.078861v-80.27165a170.440405 170.440405 0 0 0-170.571783-170.571783z m0 0" fill="#CDCFCF" p-id="3271"></path><path d="M151.016525 197.066245h140.135996v39.413249h-83.205747v32.056109h71.140914v37.07035H207.990566v74.994654h-56.930248zM308.888483 197.066245h172.411068v45.325236h-57.849891v138.231023h-56.711286v-138.209127h-57.849891zM506.721097 197.066245h94.28525q30.808023 0 46.135397 14.648591t15.327375 41.602873q0 27.786341-16.706838 43.442159t-51.018262 15.655819h-31.070777v68.119232h-56.930249z m56.930248 78.257195h13.904119q16.400291 0 23.034854-5.693025a18.349057 18.349057 0 0 0 6.568875-14.582902 20.385408 20.385408 0 0 0-5.758714-14.648591q-5.758714-5.999572-21.65539-5.999572h-16.159432z" fill="#FFFFFF" p-id="3272"></path></svg>