<?xml version="1.0" standalone="no"?><!DOCTYPE svg PUBLIC "-//W3C//DTD SVG 1.1//EN" "http://www.w3.org/Graphics/SVG/1.1/DTD/svg11.dtd"><svg t="1645262052746" class="icon" viewBox="0 0 1024 1024" version="1.1" xmlns="http://www.w3.org/2000/svg" p-id="5789" xmlns:xlink="http://www.w3.org/1999/xlink" width="400" height="400"><defs><style type="text/css"></style></defs><path d="M0 0m170.666667 0l682.666666 0q170.666667 0 170.666667 170.666667l0 682.666666q0 170.666667-170.666667 170.666667l-682.666666 0q-170.666667 0-170.666667-170.666667l0-682.666666q0-170.666667 170.666667-170.666667Z" fill="#6FC1D7" p-id="5790"></path><path d="M248.149333 477.013333c4.992-18.432 8.533333-37.12 10.581334-55.978666 1.834667-21.632 2.730667-43.349333 2.730666-65.194667v-23.552h27.989334V395.093333c-0.682667 9.344-2.602667 18.346667-5.802667 26.965334-2.730667 8.874667-7.04 16.64-12.970667 23.210666h64.853334c-8.874667 10.666667-17.962667 21.290667-27.306667 31.744h77.141333c8.192-9.813333 15.914667-19.797333 23.210667-30.037333 4.309333 10.24 9.344 20.266667 15.018667 30.037333h74.069333a547.925333 547.925333 0 0 1-47.786667-96.938666c19.114667-36.394667 35.413333-74.069333 48.810667-112.981334h-60.416c-4.309333 10.922667-8.746667 21.632-13.312 32.085334a697.728 697.728 0 0 1-10.581333-49.152h79.530666V197.802667h-88.746666a555.136 555.136 0 0 1-5.802667-34.816H336.554667c1.578667 11.818667 3.541333 23.466667 5.802666 34.816H202.069333V355.84c0 21.632-1.493333 43.093333-4.437333 64.512-2.986667 19.114667-7.509333 37.973333-13.653333 56.661333h64.170666z m237.568-283.306666c-4.309333-10.24-8.874667-20.48-13.653333-30.72H414.72c4.778667 10.026667 8.96 20.266667 12.629333 30.72h58.368zM337.92 442.538667c2.261333-5.930667 3.968-12.074667 5.12-18.432 1.365333-8.405333 2.261333-17.066667 2.730667-25.941334v-122.88H261.461333V250.026667H351.573333c7.509333 43.690667 17.749333 86.613333 30.72 128.682666-13.653333 22.314667-28.458667 43.562667-44.373333 63.829334z m272.384-224.597334a331.861333 331.861333 0 0 0-14.677333-52.906666h-60.757334c5.674667 17.28 9.813333 34.944 12.288 52.906666h63.146667z m229.034667 122.538667V296.106667h-17.408V229.546667h-90.453334l3.072-19.114667h97.28v-44.373333H624.64v44.373333h50.517333l-3.413333 19.114667h-41.642667v43.008h34.133334l-4.096 23.552h-39.594667v44.373333h218.794667z m-215.381334 136.192V422.4h-16.384V227.84h-79.530666v51.2h18.432v197.632h77.482666z m138.24-180.565333h-41.301333l3.754667-23.552h37.546666v23.552z m67.925334 180.565333V356.522667h-198.314667v120.149333h198.314667z m-61.44-43.690667h-75.093334V400.213333h75.093334v32.768zM259.754667 861.013333c3.626667-10.666667 6.144-21.632 7.509333-32.768 2.261333-17.749333 3.413333-35.626667 3.413333-53.589333v-30.72l21.162667-4.437333v-53.930667l-21.162667 4.437333v-46.421333h22.869334V593.066667h-22.869334v-46.08h-58.026666v46.08H184.32v50.517333h28.330667v58.368l-28.330667 5.802667v54.272l28.330667-5.802667v18.432c0 15.488-1.706667 30.72-5.12 45.738667-3.413333 14.08-8.533333 27.648-15.36 40.618666h67.584z m233.813333-252.928v-45.397333h-62.805333a102.058667 102.058667 0 0 0-6.826667-15.36h-68.266667c2.986667 4.992 5.333333 10.112 7.168 15.36H301.056v45.397333h192.512z m3.413333 82.602667v-45.056h-26.282666c4.096-10.666667 7.509333-21.76 10.24-33.109333h-56.32a231.509333 231.509333 0 0 1-9.898667 33.109333H296.96v45.056h200.021333z m-115.370666-50.176a324.693333 324.693333 0 0 0-8.192-27.989333H314.368c3.84 9.088 7.253333 18.432 10.24 27.989333h57.002667zM380.586667 861.013333c6.826667-4.778667 13.44-9.813333 19.797333-15.018666 6.826667 4.778667 13.653333 9.813333 20.48 15.018666h80.896a573.525333 573.525333 0 0 0-62.805333-52.565333c12.757333-16.170667 24.021333-33.450667 33.792-51.882667h23.893333v-47.104H395.946667l3.754666-12.970666H343.04l-3.754667 12.970666h-41.984v47.104h24.576c-4.309333 10.24-8.661333 20.266667-12.970666 30.037334h-0.682667c14.336 8.661333 28.672 17.493333 43.008 26.624-20.906667 17.749333-43.221333 33.706667-66.901333 47.786666H380.586667z m10.922666-77.824a459.008 459.008 0 0 1-18.090666-9.898666 364.373333 364.373333 0 0 0 6.485333-16.725334h31.744a214.912 214.912 0 0 1-20.138667 26.624z m211.626667 77.824l3.754667-7.850666h66.218666l19.797334-19.456v27.306666h146.432V806.4H756.053333v-40.277333a1054.208 1054.208 0 0 0 84.309334-110.933334h-64.512c-6.613333 9.088-13.226667 18.090667-19.797334 26.965334v-40.618667h78.506667v-54.954667h-164.864c1.834667-12.970667 3.413333-26.026667 4.778667-39.253333h-64.170667l-5.461333 39.253333h-75.093334v54.954667h66.218667c-7.253333 41.642667-16.938667 82.730667-29.013333 123.221333-5.674667 18.218667-12.16 36.181333-19.456 53.930667-6.144 14.336-13.226667 28.458667-21.162667 42.325333h76.8z m194.218667-280.234666a201.941333 201.941333 0 0 0-15.36-33.450667H711.68c5.248 10.922667 9.685333 22.058667 13.312 33.450667h72.362667zM614.4 834.389333c10.026667-26.88 18.432-54.4 25.258667-82.602666 9.088-36.394667 16.64-73.173333 22.528-110.250667h30.72V755.2a2146.986667 2146.986667 0 0 1-78.506667 79.189333z" fill="#FFFFFF" p-id="5791"></path></svg>