<?xml version="1.0" encoding="UTF-8" standalone="no"?>
<!DOCTYPE svg PUBLIC "-//W3C//DTD SVG 1.1//EN" "http://www.w3.org/Graphics/SVG/1.1/DTD/svg11.dtd">
<!-- 由 Microsoft Visio, SVG Export 生成 Intersection.svg 页-1 -->
<svg xmlns="http://www.w3.org/2000/svg" xmlns:xlink="http://www.w3.org/1999/xlink" xmlns:ev="http://www.w3.org/2001/xml-events"
		width="5.8035in" height="5.62634in" viewBox="0 0 417.852 405.096" xml:space="preserve" color-interpolation-filters="sRGB"
		class="st8">
	<style type="text/css">
	<![CDATA[
		.st1 {fill:#82aee3;stroke:none;stroke-linecap:round;stroke-linejoin:round;stroke-width:0.24}
		.st2 {fill:#99e6fc;stroke:none;stroke-linecap:round;stroke-linejoin:round;stroke-width:0.24}
		.st3 {fill:#5de1c4;stroke:none;stroke-linecap:round;stroke-linejoin:round;stroke-width:0.24}
		.st4 {fill:#fcd532;stroke:none;stroke-linecap:round;stroke-linejoin:round;stroke-width:0.24}
		.st5 {fill:#ffffff;stroke:none;stroke-linecap:round;stroke-linejoin:round;stroke-width:0.24}
		.st6 {fill:#cb97e7;stroke:none;stroke-linecap:round;stroke-linejoin:round;stroke-width:0.24}
		.st7 {fill:#fe646f;stroke:none;stroke-linecap:round;stroke-linejoin:round;stroke-width:0.24}
		.st8 {fill:none;fill-rule:evenodd;font-size:12px;overflow:visible;stroke-linecap:square;stroke-miterlimit:3}
	]]>
	</style>

	<g>
		<title>页-1</title>
		<g id="group47-1" transform="translate(49.3483,-131.931)">
			<title>工作表.47</title>
		</g>
		<g id="shape177-2" transform="translate(198.167,-0.12)">
			<title>工作表.177</title>
			<path d="M115.55 175.85 A117.26 117.26 0 0 1 33.53 261.72 A117.26 117.26 0 0 1 36.47 287.84 A117.26 117.26 0 0 1 0 372.83
						 A117.26 117.26 -180 0 0 198.05 287.84 A117.26 117.26 -180 0 0 115.55 175.85 Z" class="st1"/>
		</g>
		<g id="shape178-4" transform="translate(161.695,-32.39)">
			<title>工作表.178</title>
			<path d="M3.13 293.2 A117.26 117.26 -180 0 0 -0 320.11 A117.26 117.26 -180 0 0 36.47 405.1 A117.26 117.26 -180 0 0 72.94
						 320.11 A117.26 117.26 -180 0 0 70 293.99 A117.26 117.26 0 0 1 3.13 293.2 Z" class="st2"/>
		</g>
		<g id="shape179-6" transform="translate(0.12,-0.12)">
			<title>工作表.179</title>
			<path d="M164.7 260.93 A117.26 117.26 0 0 1 85.15 175.06 A117.26 117.26 -180 0 0 -0 287.84 A117.26 117.26 -180 0 0 198.05
						 372.83 A117.26 117.26 0 0 1 161.57 287.84 A117.26 117.26 0 0 1 164.7 260.93 Z" class="st3"/>
		</g>
		<g id="shape180-8" transform="translate(85.2708,-144.288)">
			<title>工作表.180</title>
			<path d="M112.9 347.02 A117.26 117.26 -180 0 0 -0 319.23 A117.26 117.26 -180 0 0 79.55 405.1 A117.26 117.26 0 0 1 112.9
						 347.02 Z" class="st4"/>
		</g>
		<g id="shape181-10" transform="translate(164.824,-139.018)">
			<title>工作表.181</title>
			<path d="M33.34 341.74 A117.26 117.26 -180 0 0 0 399.83 A117.26 117.26 -180 0 0 66.87 400.61 A117.26 117.26 -180 0 0
						 33.34 341.74 Z" class="st5"/>
		</g>
		<g id="shape182-12" transform="translate(198.167,-143.499)">
			<title>工作表.182</title>
			<path d="M-0 346.23 A117.26 117.26 0 0 1 33.53 405.1 A117.26 117.26 -180 0 0 115.55 319.23 A117.26 117.26 -180 0 0 0
						 346.23 Z" class="st6"/>
		</g>
		<g id="shape183-14" transform="translate(82.3247,-202.37)">
			<title>工作表.183</title>
			<path d="M115.84 405.1 A117.26 117.26 0 0 1 231.39 378.1 A117.26 117.26 -180 0 0 234.52 351.19 A117.26 117.26 -180 1
						 0 0 351.19 A117.26 117.26 -180 0 0 2.95 377.31 A117.26 117.26 0 0 1 115.84 405.1 Z" class="st7"/>
		</g>
	</g>
</svg>
