<?xml version="1.0" standalone="no"?><!DOCTYPE svg PUBLIC "-//W3C//DTD SVG 1.1//EN" "http://www.w3.org/Graphics/SVG/1.1/DTD/svg11.dtd"><svg t="1660289898186" class="icon" viewBox="0 0 1024 1024" version="1.1" xmlns="http://www.w3.org/2000/svg" p-id="3734" xmlns:xlink="http://www.w3.org/1999/xlink" width="200" height="200"><defs><style type="text/css">@font-face { font-family: feedback-iconfont; src: url("//at.alicdn.com/t/font_1031158_u69w8yhxdu.woff2?t=1630033759944") format("woff2"), url("//at.alicdn.com/t/font_1031158_u69w8yhxdu.woff?t=1630033759944") format("woff"), url("//at.alicdn.com/t/font_1031158_u69w8yhxdu.ttf?t=1630033759944") format("truetype"); }
</style></defs><path d="M473.04201 163.539656A218.858722 218.858722 0 0 0 163.539656 473.04201l102.276279 102.276278a50.512422 50.512422 0 1 1-71.388615 71.473941l-102.304721-102.333163c-123.436888-125.143389-122.754288-326.482036 1.564293-450.800616 124.290138-124.290138 325.628786-124.972739 450.800616-1.535851l-34.983265 34.954824 34.983265-34.954824 102.276279 102.276279a50.512422 50.512422 0 0 1-71.388615 71.47394L473.098893 163.539656h-0.056883z m281.686391 210.269335a50.512422 50.512422 0 0 1 71.417057 0l104.039663 104.039663c124.944297 124.887414 124.944297 327.420612 0.028442 452.364909-124.887414 124.915855-327.449054 124.915855-452.364909 0l-104.039663-104.039663a50.512422 50.512422 0 1 1 71.417056-71.445499l104.039663 104.039663a218.858722 218.858722 0 1 0 309.502354-309.44547l-104.039663-104.068105a50.512422 50.512422 0 0 1 0-71.445498z" fill="#30A4C5" p-id="3735"></path><path d="M385.157221 385.100337c20.534892-20.478009 53.754774-20.478009 74.289666 0l236.179705 236.151264a52.588665 52.588665 0 1 1-74.34655 74.403433l-236.122821-236.151264a52.560223 52.560223 0 0 1 0-74.403433z" fill="#30A4C5" p-id="3736"></path></svg>