<?xml version="1.0" standalone="no"?><!DOCTYPE svg PUBLIC "-//W3C//DTD SVG 1.1//EN" "http://www.w3.org/Graphics/SVG/1.1/DTD/svg11.dtd"><svg t="1644025327636" class="icon" viewBox="0 0 1024 1024" version="1.1" xmlns="http://www.w3.org/2000/svg" p-id="10324" xmlns:xlink="http://www.w3.org/1999/xlink" width="400" height="400"><defs><style type="text/css"></style></defs><path d="M855.2 959.6H172.3c-59.3 0-106-46.8-106-106V170.7c0-59.3 46.8-106 106-106h682.9c59.3 0 106 46.8 106 106v682.9c0 59.3-49.9 106-106 106z" fill="#93C861" p-id="10325"></path><path d="M471.6 626c-6.2 40.5-40.5 71.7-81.1 71.7H375c-46.8 0-81.1-37.4-81.1-81.1V404.5c0-46.8 37.4-81.1 81.1-81.1h15.6c43.7 0 81.1 34.3 81.1 78H506c-3.1-62.4-53-112.3-118.5-112.3h-15.6c-65.5 0-118.5 53-118.5 118.5v212.1c0 65.5 53 118.5 118.5 118.5h18.7c59.3 0 109.1-46.8 115.4-106h-34.3V626zM552.7 626c6.2 40.5 40.5 71.7 81.1 71.7h15.6c46.8 0 81.1-37.4 81.1-81.1V404.5c0-46.8-37.4-81.1-81.1-81.1h-15.6c-43.7 0-81.1 34.3-81.1 78h-34.3c3.1-62.4 53-112.3 118.5-112.3h15.6c65.5 0 118.5 53 118.5 118.5v212.1c0 65.5-53 118.5-118.5 118.5h-15.6c-59.3 0-109.1-46.8-115.4-106h31.2V626z" fill="#FFFFFF" p-id="10326"></path><path d="M490.3 526.2H371.8c-6.2 0-9.4-3.1-9.4-9.4v-18.7c0-6.2 3.1-9.4 9.4-9.4h118.5c6.2 0 9.4 3.1 9.4 9.4v18.7c0 3.1-3.1 9.4-9.4 9.4z" fill="#FFFFFF" p-id="10327"></path><path d="M474.7 526.2L418.6 470c-3.1-3.1-3.1-9.4 0-15.6l12.5-12.5c3.1-3.1 9.4-3.1 15.6 0l56.1 56.1c3.1 3.1 3.1 9.4 0 15.6l-12.5 12.5c-6.2 3.2-12.4 3.2-15.6 0.1z" fill="#FFFFFF" p-id="10328"></path><path d="M443.6 569.8l56.1-56.1c3.1-3.1 3.1-9.4 0-15.6l-12.5-12.5c-3.1-3.1-9.4-3.1-15.6 0l-56.1 56.1c-3.1 3.1-3.1 9.4 0 15.6l12.5 12.5c6.2 3.1 12.4 3.1 15.6 0z" fill="#FFFFFF" p-id="10329"></path><path d="M530.9 526.2h118.5c6.2 0 9.4-3.1 9.4-9.4v-18.7c0-6.2-3.1-9.4-9.4-9.4H530.9c-6.2 0-9.4 3.1-9.4 9.4v18.7c0 3.1 6.3 9.4 9.4 9.4z" fill="#FFFFFF" p-id="10330"></path><path d="M549.6 526.2l56.1-56.1c3.1-3.1 3.1-9.4 0-15.6L593.2 442c-3.1-3.1-9.4-3.1-15.6 0l-56.1 56.1c-3.1 3.1-3.1 9.4 0 15.6l12.5 12.5c3.1 3.1 9.4 3.1 15.6 0z" fill="#FFFFFF" p-id="10331"></path><path d="M577.7 569.8l-56.1-56.1c-3.1-3.1-3.1-9.4 0-15.6l12.5-12.5c3.1-3.1 9.4-3.1 15.6 0l56.1 56.1c3.1 3.1 3.1 9.4 0 15.6l-12.5 12.5c-6.3 3.1-12.5 3.1-15.6 0z" fill="#FFFFFF" p-id="10332"></path></svg>