<?xml version="1.0" standalone="no"?><!DOCTYPE svg PUBLIC "-//W3C//DTD SVG 1.1//EN" "http://www.w3.org/Graphics/SVG/1.1/DTD/svg11.dtd"><svg t="1644398055926" class="icon" viewBox="0 0 1024 1024" version="1.1" xmlns="http://www.w3.org/2000/svg" p-id="2884" data-spm-anchor-id="a313x.7781069.0.i1" xmlns:xlink="http://www.w3.org/1999/xlink" width="400" height="400"><defs><style type="text/css"></style></defs><path d="M377.9 989.7c1.6-4.7 2.4-9.7 2.4-14.9V48.3c0-26.2-21.4-47.6-47.6-47.6-26.2 0-47.6 21.4-47.6 47.6V844l-195-232.4c-16.8-20-47-22.6-67.1-5.8-20 16.8-22.6 47-5.8 67.1l279.1 332.6c3.4 4.1 7.4 7.4 11.7 10 0.5 0.3 1.1 0.6 1.6 0.9 0.3 0.2 0.6 0.3 0.9 0.5 0.3 0.1 0.6 0.3 0.8 0.4 6.4 3.2 13.7 5.1 21.3 5.1 4.3 0 8.5-0.6 12.5-1.7 6.5-1.7 12.7-4.9 18.2-9.4 6.5-5.5 11.2-12.4 14-20 0.1-0.2 0.1-0.3 0.2-0.5 0.2-0.4 0.3-0.7 0.4-1.1z" fill="#2792D9" p-id="2885"></path><path d="M1010.7 350.2l-279-332.6c-3.9-4.6-8.5-8.3-13.5-11.1-0.2-0.1-0.3-0.2-0.5-0.3l-1.2-0.6c-0.5-0.2-0.9-0.5-1.4-0.7-0.1 0-0.2-0.1-0.3-0.1-5.9-2.7-12.5-4.2-19.4-4.2-4 0-7.9 0.5-11.6 1.4-6.8 1.7-13.4 4.9-19.1 9.7-7.1 6-12 13.6-14.6 21.9-0.1 0.4-0.3 0.8-0.4 1.2 0 0.1-0.1 0.3-0.1 0.4-1.2 4.1-1.8 8.5-1.8 13v926.5c0 26.2 21.4 47.6 47.6 47.6 26.2 0 47.6-21.4 47.6-47.6V179.2l194.8 232.3c16.8 20 47 22.6 67.1 5.8 20-16.8 22.6-47 5.8-67.1z" fill="#bfbfbf" p-id="2886"></path></svg>