<?xml version="1.0" standalone="no"?><!DOCTYPE svg PUBLIC "-//W3C//DTD SVG 1.1//EN" "http://www.w3.org/Graphics/SVG/1.1/DTD/svg11.dtd"><svg t="1643877479364" class="icon" viewBox="0 0 1024 1024" version="1.1" xmlns="http://www.w3.org/2000/svg" p-id="8587" xmlns:xlink="http://www.w3.org/1999/xlink" width="400" height="400"><defs><style type="text/css"></style></defs><path d="M484.199054 498.303027L251.681508 364.159289v297.469419L484.659053 794.853448a28.106945 28.106945 0 0 1-0.459999-4.649991zM302.784409 656.058719c-16.914967 0-30.66194-20.44096-30.66194-45.992911s13.746973-45.99191 30.66194-45.99191 30.66094 20.44096 30.66094 45.99191-13.745973 45.99291-30.66094 45.992911z m0-137.977731c-16.914967 0-30.66194-20.43996-30.66194-45.99191s13.746973-45.99291 30.66194-45.99291 30.66094 20.44096 30.66094 45.99291-13.745973 45.99191-30.66094 45.99191z m127.75675 209.521591c-16.914967 0-30.66194-20.44096-30.66194-45.99191s13.746973-45.99291 30.66194-45.99291 30.66194 20.44096 30.66194 45.99291-13.746973 45.99191-30.66194 45.99191z m0-137.977731c-16.914967 0-30.66194-20.43996-30.66194-45.99191s13.746973-45.99291 30.66194-45.99291 30.66194 20.44096 30.66194 45.99291-13.746973 45.99191-30.66194 45.99191z m104.759795 200.579609a26.113949 26.113949 0 0 1-0.662998 5.671989L772.92849 646.961736V363.954289L535.301954 498.457026zM719.272595 555.128916c16.914967 0 30.66194 20.44096 30.66194 45.99191s-13.746973 45.99291-30.66194 45.99291-30.66094-20.44096-30.66094-45.99291 13.745973-45.99191 30.66094-45.99191z m-127.75675-56.21289c16.914967 0 30.66194 20.43996 30.66194 45.99191s-13.746973 45.99291-30.66194 45.99291-30.66194-20.44096-30.66194-45.99291 13.746973-45.99191 30.66194-45.99191z m-84.779835-284.745444L279.992453 321.487372l229.962551 132.867741L739.508556 324.399366z m3.014994 141.657723c-25.55095 0-45.99191-13.746973-45.99191-30.66194s20.44096-30.66194 45.99191-30.66194 45.99291 13.695973 45.992911 30.66194-20.59396 30.66194-45.992911 30.66194z" fill="#29ABE2" p-id="8588"></path><path d="M512.305999 1.941996a511.028002 511.028002 0 1 0 511.028002 511.028002 511.028002 511.028002 0 0 0-511.029002-511.029002z m311.726392 659.225713a25.55095 25.55095 0 0 1-12.008977 21.667957L525.848973 861.695317a25.55095 25.55095 0 0 1-26.215949 0.510999l-286.175441-163.529681a25.55095 25.55095 0 0 1-12.877975-22.177956V318.779377a25.55095 25.55095 0 0 1 14.614972-23.098955L495.749032 162.813682a25.55095 25.55095 0 0 1 21.871957 0L809.418419 300.791413a25.55095 25.55095 0 0 1 14.614972 23.149954z" fill="#29ABE2" p-id="8589"></path></svg>