<?xml version="1.0" standalone="no"?><!DOCTYPE svg PUBLIC "-//W3C//DTD SVG 1.1//EN" "http://www.w3.org/Graphics/SVG/1.1/DTD/svg11.dtd"><svg t="1645331967769" class="icon" viewBox="0 0 1024 1024" version="1.1" xmlns="http://www.w3.org/2000/svg" p-id="2566" xmlns:xlink="http://www.w3.org/1999/xlink" width="400" height="400"><defs><style type="text/css"></style></defs><path d="M232.272599 3.40761H793.598005c126.82243 0 229.631958 102.81055 229.631957 229.63298v561.326429c0 126.82243-102.81055 229.632981-229.631957 229.632981H232.272599c-126.823454 0-229.632981-102.811574-229.632981-229.632981V233.04059c0-126.82243 102.809527-229.632981 229.632981-229.63298z" fill="#3DBFD9" p-id="2567"></path><path d="M268.302187 818.98572c-22.128997-49.362244-38.969547-99.695606-50.51551-150.999063-11.552104-51.303456-17.325597-103.09503-17.325598-155.376767 0-52.033074 5.652743-103.766318 16.960277-155.194618 11.30651-51.426253 28.506241-101.577466 51.609425-150.451593 0.970094-2.187829 1.333368-4.250814 1.094938-6.200213-0.24457-1.944282-1.339508-3.52222-3.282767-4.742001-1.949398-1.213641-4.622274-2.187829-8.024767-2.917446-3.408633-0.729617-7.904017-1.094938-13.495362-1.094937-5.351891 0-9.727549 0.182149-13.131065 0.547469-3.408633 0.36532-6.081509 0.912789-8.023744 1.641383-1.949398 0.728594-3.464915 1.458211-4.559852 2.188852-1.092891 0.729617-1.766226 1.584078-2.004657 2.554172-12.401448 25.046443-23.588231 50.332339-33.556257 75.862805a708.709127 708.709127 0 0 0-25.349341 77.872578 695.516664 695.516664 0 0 0-16.048511 79.693041c-3.77293 26.751271-5.653767 53.861722-5.653767 81.334423 0 27.480888 1.698688 54.651714 5.107321 81.519642a634.701576 634.701576 0 0 0 15.318894 79.694063 676.156734 676.156734 0 0 0 25.166169 77.505211c9.967002 25.4046 21.519106 50.51551 34.649148 75.318407 0.729617 1.212618 1.824555 2.308579 3.282766 3.282766 1.458211 0.967024 3.340071 1.821485 5.652744 2.550079 2.307555 0.730641 5.043876 1.216711 8.206916 1.459234 3.1569 0.240477 6.92983 0.366344 11.307533 0.366344 6.075369 0 10.878768-0.309038 14.406105-0.912789 3.52222-0.608867 6.138814-1.585101 7.842618-2.916423 1.698688-1.338485 2.490727-3.043313 2.371001-5.110391-0.12382-2.067079-0.791016-4.557806-2.004657-7.474228z m96.697319-191.117782c-15.07944 0-25.474185 2.859118-31.184233 8.567119-5.715165 5.717212-8.571213 17.204847-8.571212 34.469046 0 16.776082 2.792603 27.964912 8.38804 33.55728 5.590322 5.588275 15.685237 8.388041 30.272468 8.388041 15.0733 0 25.470091-2.859118 31.186279-8.572236 5.709025-5.712095 8.570189-17.200754 8.57019-34.469046 0-16.777105-2.798742-27.955702-8.388041-33.552164-5.596462-5.592368-15.684214-8.388041-30.273491-8.38804z m330.522786-345.952197c-0.246617-4.250814-3.164063-10.998495-8.755408-20.243043-5.595438-9.721409-10.156314-15.683191-13.675464-17.872043-3.527336-2.187829-6.748704-2.187829-9.665127 0l-77.689407 56.168254 10.21362-95.194082c0.728594-3.88754-0.856507-6.804986-4.743025-8.754385-3.89368-1.942235-11.4334-2.917446-22.615067-2.917446-11.186783 0-18.726503 0.975211-22.611997 2.917446-3.89061 1.949398-5.471618 4.866844-4.743024 8.754385l10.213619 95.194082-77.324086-56.168254c-2.918469-2.187829-6.201236-2.187829-9.847276 0-3.648087 2.188852-8.270361 8.024767-13.860682 17.506723-5.595438 9.484002-8.450463 16.356526-8.571213 20.60734-0.125867 4.256954 1.515516 7.237845 4.92415 8.93551l87.900979 38.662554-87.900979 39.026852c-3.408633 1.458211-5.048993 4.320399-4.92415 8.571213 0.12075 4.25593 2.975774 11.124362 8.571213 20.606317 5.590322 9.728572 10.212596 15.684214 13.860682 17.873066 3.64604 2.187829 6.928806 2.187829 9.847276 0l77.324086-56.533574-10.213619 95.559402c-0.728594 3.647063 0.852414 6.445806 4.743024 8.389065 3.885494 1.948375 11.425214 2.917446 22.611997 2.917445 11.181667 0 18.721387-0.969071 22.615067-2.917445 3.886517-1.943258 5.471618-4.742001 4.743025-8.389065l-10.21362-95.559402 77.689407 56.533574c2.917446 2.187829 6.137791 2.187829 9.665127 0 3.51915-2.188852 8.080026-8.143471 13.675464-17.873066 5.591345-9.481955 8.507768-16.350386 8.755408-20.606317 0.237407-4.251837-1.340531-7.113001-4.743024-8.571213l-87.898933-39.026852 87.898933-38.662554c3.402493-1.695618 4.980431-4.676509 4.743024-8.934487z m172.015725 70.759577c-14.226003-52.642964-33.864272-103.887069-58.906621-153.735383-0.490164-0.970094-1.218758-1.824555-2.187829-2.554173-0.975211-0.730641-2.49789-1.460258-4.558829-2.188852-2.069125-0.729617-4.804423-1.276063-8.207939-1.641383-3.405563-0.364297-7.6574-0.547469-12.765745-0.547468-5.595438 0-10.091846 0.364297-13.495362 1.094937-3.40761 0.729617-6.080485 1.704828-8.024767 2.917446-1.949398 1.219781-3.043313 2.797719-3.282766 4.742001-0.24457 1.949398 0.119727 4.012384 1.094937 6.200212 22.852474 48.874127 39.994899 99.026364 51.426253 150.451594 11.426237 51.4283 17.143449 103.162568 17.143449 155.194618 0 52.281737-5.717212 104.130615-17.143449 155.559939-11.429307 51.426253-28.328185 101.695147-50.695612 150.816914-1.218758 2.916423-1.885953 5.40715-2.006704 7.474228-0.125867 2.068102 0.604774 3.77293 2.190899 5.110391 1.575892 1.331321 4.13211 2.307555 7.659447 2.916423 3.521197 0.603751 8.444323 0.912789 14.771425 0.912789 4.377704 0 8.143471-0.125867 11.308557-0.366344 3.15383-0.2415 5.89015-0.728594 8.206915-1.459234 2.304486-0.728594 4.192485-1.583055 5.649674-2.550079 1.459235-0.974188 2.554172-2.070148 3.282766-3.282766 13.131065-24.801872 24.620747-49.912783 34.469046-75.318407a701.592033 701.592033 0 0 0 24.984021-77.505211 637.474736 637.474736 0 0 0 15.319917-79.694063c3.40147-26.867928 5.104251-54.038754 5.104251-81.519642-0.001023-54.710043-7.113001-108.381429-21.335934-161.028487z" fill="#FFFFFF" p-id="2568"></path></svg>