<?xml version="1.0" standalone="no"?><!DOCTYPE svg PUBLIC "-//W3C//DTD SVG 1.1//EN" "http://www.w3.org/Graphics/SVG/1.1/DTD/svg11.dtd"><svg t="1660289965137" class="icon" viewBox="0 0 1024 1024" version="1.1" xmlns="http://www.w3.org/2000/svg" p-id="3415" xmlns:xlink="http://www.w3.org/1999/xlink" width="200" height="200"><defs><style type="text/css">@font-face { font-family: feedback-iconfont; src: url("//at.alicdn.com/t/font_1031158_u69w8yhxdu.woff2?t=1630033759944") format("woff2"), url("//at.alicdn.com/t/font_1031158_u69w8yhxdu.woff?t=1630033759944") format("woff"), url("//at.alicdn.com/t/font_1031158_u69w8yhxdu.ttf?t=1630033759944") format("truetype"); }
</style></defs><path d="M299.04213333 931.36213334c-15.83786667 0-31.67573333-4.36906667-48.05973333-11.4688-31.67573333-18.0224-52.4288-50.24426667-52.4288-88.4736v-48.05973333c-77.55093333-9.28426667-136.53333333-72.63573333-136.53333334-152.3712V255.24906667c0-84.10453333 68.26666667-152.3712 152.3712-152.3712H817.32266666c84.10453333 0 152.3712 68.26666667 152.3712 152.3712v373.00906667c0 84.10453333-68.26666667 152.3712-152.3712 152.3712h-266.51306666l-195.51573334 129.97973333c-17.47626667 13.65333333-36.0448 20.75306667-56.25173333 20.75306667z m-81.92-753.11786667c-43.14453333 0-77.55093333 33.86026667-77.55093333 77.55093334v373.00906666c0 43.14453333 34.4064 77.55093333 77.55093333 77.55093334h58.9824v122.88c0 13.65333333 9.28426667 18.0224 11.4688 20.75306666 4.36906667 2.18453333 13.65333333 6.5536 25.12213333 0l216.2688-143.08693333h291.08906667c43.14453333 0 77.55093333-33.86026667 77.55093333-77.55093333V255.24906667c0-43.14453333-33.86026667-77.55093333-77.55093333-77.55093333 0 0.54613333-602.9312 0.54613333-602.9312 0.54613333z" fill="#20AC95" p-id="3416"></path><path d="M285.3888 446.39573334c0 30.03733333 24.576 54.61333333 54.61333333 54.61333333s54.61333333-24.576 54.61333333-54.61333333-24.576-54.61333333-54.61333333-54.61333333-54.61333333 24.576-54.61333333 54.61333333z m181.8624 0c0 30.03733333 24.576 54.61333333 54.61333333 54.61333333s54.61333333-24.576 54.61333333-54.61333333-24.576-54.61333333-54.61333333-54.61333333-54.61333333 24.576-54.61333333 54.61333333z m173.12426666 0c0 30.03733333 24.576 54.61333333 54.61333334 54.61333333s54.61333333-24.576 54.61333333-54.61333333-24.576-54.61333333-54.61333333-54.61333333-54.61333333 24.576-54.61333334 54.61333333z" fill="#20AC95" p-id="3417"></path></svg>