<?xml version="1.0" standalone="no"?><!DOCTYPE svg PUBLIC "-//W3C//DTD SVG 1.1//EN" "http://www.w3.org/Graphics/SVG/1.1/DTD/svg11.dtd"><svg t="1644667525061" class="icon" viewBox="0 0 1024 1024" version="1.1" xmlns="http://www.w3.org/2000/svg" p-id="3982" xmlns:xlink="http://www.w3.org/1999/xlink" width="400" height="400"><defs><style type="text/css"></style></defs><path d="M659.44 332.87H364.56c-11.47 0-20.76 9.29-20.76 20.76v26.02c0 11.47 9.29 20.76 20.76 20.76s20.76-9.29 20.76-20.76v-5.26h105.93v275.24h-10.92c-11.47 0-20.76 9.29-20.76 20.76 0 11.47 9.29 20.76 20.76 20.76h63.35c11.47 0 20.76-9.29 20.76-20.76 0-11.47-9.29-20.76-20.76-20.76h-10.92V374.38h105.93v5.26c0 11.47 9.29 20.76 20.76 20.76 11.47 0 20.76-9.29 20.76-20.76v-26.02c-0.01-11.46-9.31-20.75-20.77-20.75z" p-id="3983" fill="#d81e06"></path><path d="M755.55 174.12h-487.1c-46.54 0-81.64 43.01-81.64 100.04v475.68c0 57.03 35.1 100.03 81.64 100.03h487.09c46.54 0 81.64-43.01 81.64-100.03V274.16c0.01-57.03-35.09-100.04-81.63-100.04z m40.13 575.72c0 32.82-17.63 58.52-40.13 58.52h-487.1c-22.5 0-40.13-25.7-40.13-58.52V274.16c0-32.82 17.63-58.53 40.13-58.53h487.09c22.5 0 40.13 25.71 40.13 58.53v475.68z" p-id="3984" fill="#d81e06"></path></svg>